<?xml version="1.0" encoding="utf-8"?>
<!-- Generator: Adobe Illustrator 16.0.0, SVG Export Plug-In . SVG Version: 6.00 Build 0)  -->
<!DOCTYPE svg PUBLIC "-//W3C//DTD SVG 1.1//EN" "http://www.w3.org/Graphics/SVG/1.1/DTD/svg11.dtd">
<svg version="1.1" id="Layer_1" xmlns="http://www.w3.org/2000/svg" xmlns:xlink="http://www.w3.org/1999/xlink" x="0px" y="0px"
	 width="548.561px" height="641.895px" viewBox="0 0 548.561 641.895" enable-background="new 0 0 548.561 641.895"
	 xml:space="preserve">
<g id="New_Symbol">
	<path fill="none" stroke="#000000" stroke-miterlimit="10" d="M199.157,297.867c-1.13,0.49-2.25,1.05-3.34,1.67
		c-16.18,9.35-30.44,21.41-42.38,35.85c-12.03-11.33-26.85-18.6-45.63-19.29c-47.83-1.74-67.93,33.28-85.37,62.9
		c-32.14-55.51-39.65-148.29,45.36-174.53C114.717,189.997,164.777,236.877,199.157,297.867z"/>
	<path fill="none" stroke="#000000" stroke-miterlimit="10" d="M526.697,378.997c-17.45-29.62-37.48-64.64-85.32-62.9
		c-18.78,0.69-33.609,7.96-45.649,19.3c-11.95-14.44-26.2-26.49-42.36-35.85c-1.1-0.63-2.24-1.2-3.39-1.67
		c34.399-60.99,84.5-107.88,131.409-93.41C566.397,230.707,558.827,323.487,526.697,378.997z"/>
	<path fill="none" stroke="#000000" stroke-miterlimit="10" d="M387.247,582.287c-15.14,4.03-28.5,1.57-39.77-6.71
		c1.97-1.02,3.939-2.11,5.89-3.229c14.54-8.42,19.53-26.601,11.13-41.15l-37.09-63.75h20.61c1.25,20,7.369,36.69,20.22,40.5
		c23.149,6.86,36.72-7.38,51.2-31.67C428.707,500.467,438.268,568.697,387.247,582.287z"/>
	<path fill="none" stroke="#000000" stroke-miterlimit="10" d="M195.787,572.348c1.99,1.159,3.98,2.25,5.91,3.25
		c-11.26,8.27-24.62,10.72-39.75,6.689c-51.03-13.59-41.52-82.07-32.25-106.26c14.47,24.29,28.05,38.78,51.19,31.92
		c12.86-3.81,18.98-20.5,20.23-40.5h20.64l-37.1,63.75C176.257,545.747,181.247,563.928,195.787,572.348z"/>
	<path fill="none" stroke="#000000" stroke-miterlimit="10" d="M316.867,587.678c-4.95,20.42-25.14,41.76-41.48,54.22
		c-16.38-12.38-36.48-33.51-41.6-53.811c13.32,3.561,27.02,5.36,40.79,5.36C288.897,593.447,303.107,591.507,316.867,587.678z"/>
	<path fill="none" stroke="#000000" stroke-miterlimit="10" d="M274.577,461.447c-14.083,0-25.5-11.417-25.5-25.5
		c0-14.083,11.417-25.5,25.5-25.5c14.084,0,25.5,11.417,25.5,25.5C300.077,450.03,288.661,461.447,274.577,461.447z
		 M300.087,480.117c-7.5,4.34-16.22,6.83-25.51,6.83s-18-2.48-25.5-6.83l-38.01,65.83c18.68,10.81,40.37,17,63.51,17
		c23.14,0,44.83-6.19,63.51-17L300.087,480.117z M338.087,326.197l-38.01,65.955c15.24,8.81,25.5,25.295,25.5,44.295h76
		C401.577,389.447,376.047,348.157,338.087,326.197z M211.077,326.197c-37.96,21.95-63.5,62.25-63.5,110.25h76
		c0-19,10.26-35.485,25.5-44.305L211.077,326.197z"/>
	<path fill="none" stroke="#000000" stroke-miterlimit="10" d="M275.268-0.003c39.26,56.82,97.24,145.77,96.431,198.47
		c-0.11,7.63-8.341,25.1-8.341,25.1l-50.239,87.02l-37.851,64.36l-37.851-64.36l-50.24-87.02c0,0-8.23-17.47-8.34-25.1
		C178.027,145.767,236.008,56.817,275.268-0.003z"/>
</g>
</svg>
