  0
SECTION
  2
HEADER
  9
$ACADVER
  1
AC1027
  9
$ACADMAINTVER
 70
105
  9
$DWGCODEPAGE
  3
ANSI_1252
  9
$LASTSAVEDBY
  1
ezdxf
  9
$REQUIREDVERSIONS
160
0
  9
$INSBASE
 10
0.0
 20
0.0
 30
0.0
  9
$EXTMIN
 10
1e+20
 20
1e+20
 30
1e+20
  9
$EXTMAX
 10
-1e+20
 20
-1e+20
 30
-1e+20
  9
$LIMMIN
 10
0.0
 20
0.0
  9
$LIMMAX
 10
420.0
 20
297.0
  9
$ORTHOMODE
 70
0
  9
$REGENMODE
 70
1
  9
$FILLMODE
 70
1
  9
$QTEXTMODE
 70
0
  9
$MIRRTEXT
 70
1
  9
$LTSCALE
 40
1.0
  9
$ATTMODE
 70
1
  9
$TEXTSIZE
 40
2.5
  9
$TRACEWID
 40
1.0
  9
$TEXTSTYLE
  7
OpenSans
  9
$CLAYER
  8
0
  9
$CELTYPE
  6
ByLayer
  9
$CECOLOR
 62
256
  9
$CELTSCALE
 40
1.0
  9
$DISPSILH
 70
0
  9
$DIMSCALE
 40
1.0
  9
$DIMASZ
 40
0.175
  9
$DIMEXO
 40
0.125
  9
$DIMDLI
 40
3.75
  9
$DIMRND
 40
0.0
  9
$DIMDLE
 40
0.0
  9
$DIMEXE
 40
0.375
  9
$DIMTP
 40
0.0
  9
$DIMTM
 40
0.0
  9
$DIMTXT
 40
0.25
  9
$DIMCEN
 40
2.5
  9
$DIMTSZ
 40
0.0
  9
$DIMTOL
 70
0
  9
$DIMLIM
 70
0
  9
$DIMTIH
 70
0
  9
$DIMTOH
 70
0
  9
$DIMSE1
 70
0
  9
$DIMSE2
 70
0
  9
$DIMTAD
 70
1
  9
$DIMZIN
 70
12
  9
$DIMBLK
  1
ARCHTICK
  9
$DIMASO
 70
1
  9
$DIMSHO
 70
1
  9
$DIMPOST
  1

  9
$DIMAPOST
  1

  9
$DIMALT
 70
0
  9
$DIMALTD
 70
3
  9
$DIMALTF
 40
0.03937007874
  9
$DIMLFAC
 40
100.0
  9
$DIMTOFL
 70
1
  9
$DIMTVP
 40
0.0
  9
$DIMTIX
 70
0
  9
$DIMSOXD
 70
0
  9
$DIMSAH
 70
0
  9
$DIMBLK1
  1

  9
$DIMBLK2
  1

  9
$DIMSTYLE
  2
EZDXF
  9
$DIMCLRD
 70
0
  9
$DIMCLRE
 70
0
  9
$DIMCLRT
 70
0
  9
$DIMTFAC
 40
0.5
  9
$DIMGAP
 40
0.1
  9
$DIMJUST
 70
0
  9
$DIMSD1
 70
0
  9
$DIMSD2
 70
0
  9
$DIMTOLJ
 70
0
  9
$DIMTZIN
 70
8
  9
$DIMALTZ
 70
0
  9
$DIMALTTZ
 70
0
  9
$DIMUPT
 70
1
  9
$DIMDEC
 70
2
  9
$DIMTDEC
 70
2
  9
$DIMALTU
 70
2
  9
$DIMALTTD
 70
3
  9
$DIMTXSTY
  7
OpenSansCondensed-Light
  9
$DIMAUNIT
 70
0
  9
$DIMADEC
 70
2
  9
$DIMALTRND
 40
0.0
  9
$DIMAZIN
 70
3
  9
$DIMDSEP
 70
46
  9
$DIMATFIT
 70
3
  9
$DIMFRAC
 70
0
  9
$DIMLDRBLK
  1

  9
$DIMLUNIT
 70
2
  9
$DIMLWD
 70
-2
  9
$DIMLWE
 70
-2
  9
$DIMTMOVE
 70
2
  9
$DIMFXL
 40
1.0
  9
$DIMFXLON
 70
0
  9
$DIMJOGANG
 40
0.785398163397
  9
$DIMTFILL
 70
0
  9
$DIMTFILLCLR
 70
0
  9
$DIMARCSYM
 70
0
  9
$DIMLTYPE
  6

  9
$DIMLTEX1
  6

  9
$DIMLTEX2
  6

  9
$DIMTXTDIRECTION
 70
0
  9
$LUNITS
 70
2
  9
$LUPREC
 70
4
  9
$SKETCHINC
 40
1.0
  9
$FILLETRAD
 40
10.0
  9
$AUNITS
 70
0
  9
$AUPREC
 70
2
  9
$MENU
  1
.
  9
$ELEVATION
 40
0.0
  9
$PELEVATION
 40
0.0
  9
$THICKNESS
 40
0.0
  9
$LIMCHECK
 70
0
  9
$CHAMFERA
 40
0.0
  9
$CHAMFERB
 40
0.0
  9
$CHAMFERC
 40
0.0
  9
$CHAMFERD
 40
0.0
  9
$SKPOLY
 70
0
  9
$TDCREATE
 40
2461093.930636574
  9
$TDUCREATE
 40
2458532.153996898
  9
$TDUPDATE
 40
2461093.930636574
  9
$TDUUPDATE
 40
2458532.1544311
  9
$TDINDWG
 40
0.0
  9
$TDUSRTIMER
 40
0.0
  9
$USRTIMER
 70
1
  9
$ANGBASE
 50
0.0
  9
$ANGDIR
 70
0
  9
$PDMODE
 70
0
  9
$PDSIZE
 40
0.0
  9
$PLINEWID
 40
0.0
  9
$SPLFRAME
 70
0
  9
$SPLINETYPE
 70
6
  9
$SPLINESEGS
 70
8
  9
$HANDSEED
  5
A2
  9
$SURFTAB1
 70
6
  9
$SURFTAB2
 70
6
  9
$SURFTYPE
 70
6
  9
$SURFU
 70
6
  9
$SURFV
 70
6
  9
$UCSBASE
  2

  9
$UCSNAME
  2

  9
$UCSORG
 10
0.0
 20
0.0
 30
0.0
  9
$UCSXDIR
 10
1.0
 20
0.0
 30
0.0
  9
$UCSYDIR
 10
0.0
 20
1.0
 30
0.0
  9
$UCSORTHOREF
  2

  9
$UCSORTHOVIEW
 70
0
  9
$UCSORGTOP
 10
0.0
 20
0.0
 30
0.0
  9
$UCSORGBOTTOM
 10
0.0
 20
0.0
 30
0.0
  9
$UCSORGLEFT
 10
0.0
 20
0.0
 30
0.0
  9
$UCSORGRIGHT
 10
0.0
 20
0.0
 30
0.0
  9
$UCSORGFRONT
 10
0.0
 20
0.0
 30
0.0
  9
$UCSORGBACK
 10
0.0
 20
0.0
 30
0.0
  9
$PUCSBASE
  2

  9
$PUCSNAME
  2

  9
$PUCSORG
 10
0.0
 20
0.0
 30
0.0
  9
$PUCSXDIR
 10
1.0
 20
0.0
 30
0.0
  9
$PUCSYDIR
 10
0.0
 20
1.0
 30
0.0
  9
$PUCSORTHOREF
  2

  9
$PUCSORTHOVIEW
 70
0
  9
$PUCSORGTOP
 10
0.0
 20
0.0
 30
0.0
  9
$PUCSORGBOTTOM
 10
0.0
 20
0.0
 30
0.0
  9
$PUCSORGLEFT
 10
0.0
 20
0.0
 30
0.0
  9
$PUCSORGRIGHT
 10
0.0
 20
0.0
 30
0.0
  9
$PUCSORGFRONT
 10
0.0
 20
0.0
 30
0.0
  9
$PUCSORGBACK
 10
0.0
 20
0.0
 30
0.0
  9
$USERI1
 70
0
  9
$USERI2
 70
0
  9
$USERI3
 70
0
  9
$USERI4
 70
0
  9
$USERI5
 70
0
  9
$USERR1
 40
0.0
  9
$USERR2
 40
0.0
  9
$USERR3
 40
0.0
  9
$USERR4
 40
0.0
  9
$USERR5
 40
0.0
  9
$WORLDVIEW
 70
1
  9
$SHADEDGE
 70
3
  9
$SHADEDIF
 70
70
  9
$TILEMODE
 70
1
  9
$MAXACTVP
 70
64
  9
$PINSBASE
 10
0.0
 20
0.0
 30
0.0
  9
$PLIMCHECK
 70
0
  9
$PEXTMIN
 10
1e+20
 20
1e+20
 30
1e+20
  9
$PEXTMAX
 10
-1e+20
 20
-1e+20
 30
-1e+20
  9
$PLIMMIN
 10
0.0
 20
0.0
  9
$PLIMMAX
 10
420.0
 20
297.0
  9
$UNITMODE
 70
0
  9
$VISRETAIN
 70
1
  9
$PLINEGEN
 70
0
  9
$PSLTSCALE
 70
1
  9
$TREEDEPTH
 70
3020
  9
$CMLSTYLE
  2
Standard
  9
$CMLJUST
 70
0
  9
$CMLSCALE
 40
20.0
  9
$PROXYGRAPHICS
 70
1
  9
$MEASUREMENT
 70
1
  9
$CELWEIGHT
370
-1
  9
$ENDCAPS
280
0
  9
$JOINSTYLE
280
0
  9
$LWDISPLAY
290
0
  9
$INSUNITS
 70
6
  9
$HYPERLINKBASE
  1

  9
$STYLESHEET
  1

  9
$XEDIT
290
1
  9
$CEPSNTYPE
380
0
  9
$PSTYLEMODE
290
1
  9
$FINGERPRINTGUID
  2
{469BEEC8-1202-4244-8D75-293FE0211C0B}
  9
$VERSIONGUID
  2
{C91351CD-41A8-464E-8066-885A144AC181}
  9
$EXTNAMES
290
1
  9
$PSVPSCALE
 40
0.0
  9
$OLESTARTUP
290
0
  9
$SORTENTS
280
127
  9
$INDEXCTL
280
0
  9
$HIDETEXT
280
1
  9
$XCLIPFRAME
280
1
  9
$HALOGAP
280
0
  9
$OBSCOLOR
 70
257
  9
$OBSLTYPE
280
0
  9
$INTERSECTIONDISPLAY
280
0
  9
$INTERSECTIONCOLOR
 70
257
  9
$DIMASSOC
280
2
  9
$PROJECTNAME
  1

  9
$CAMERADISPLAY
290
0
  9
$LENSLENGTH
 40
50.0
  9
$CAMERAHEIGHT
 40
0.0
  9
$STEPSPERSEC
 40
24.0
  9
$STEPSIZE
 40
100.0
  9
$3DDWFPREC
 40
2.0
  9
$PSOLWIDTH
 40
0.005
  9
$PSOLHEIGHT
 40
0.08
  9
$LOFTANG1
 40
1.570796326795
  9
$LOFTANG2
 40
1.570796326795
  9
$LOFTMAG1
 40
0.0
  9
$LOFTMAG2
 40
0.0
  9
$LOFTPARAM
 70
7
  9
$LOFTNORMALS
280
1
  9
$LATITUDE
 40
37.795
  9
$LONGITUDE
 40
-122.394
  9
$NORTHDIRECTION
 40
0.0
  9
$TIMEZONE
 70
-8000
  9
$LIGHTGLYPHDISPLAY
280
1
  9
$TILEMODELIGHTSYNCH
280
1
  9
$CMATERIAL
347
20
  9
$SOLIDHIST
280
0
  9
$SHOWHIST
280
1
  9
$DWFFRAME
280
2
  9
$DGNFRAME
280
2
  9
$REALWORLDSCALE
290
1
  9
$INTERFERECOLOR
 62
256
  9
$CSHADOW
280
0
  9
$SHADOWPLANELOCATION
 40
0.0
  0
ENDSEC
  0
SECTION
  2
CLASSES
  0
CLASS
  1
ACDBDICTIONARYWDFLT
  2
AcDbDictionaryWithDefault
  3
ObjectDBX Classes
 90
0
 91
0
280
0
281
0
  0
CLASS
  1
SUN
  2
AcDbSun
  3
SCENEOE
 90
1153
 91
0
280
0
281
0
  0
CLASS
  1
VISUALSTYLE
  2
AcDbVisualStyle
  3
ObjectDBX Classes
 90
4095
 91
0
280
0
281
0
  0
CLASS
  1
MATERIAL
  2
AcDbMaterial
  3
ObjectDBX Classes
 90
1153
 91
0
280
0
281
0
  0
CLASS
  1
SCALE
  2
AcDbScale
  3
ObjectDBX Classes
 90
1153
 91
0
280
0
281
0
  0
CLASS
  1
TABLESTYLE
  2
AcDbTableStyle
  3
ObjectDBX Classes
 90
4095
 91
0
280
0
281
0
  0
CLASS
  1
MLEADERSTYLE
  2
AcDbMLeaderStyle
  3
ACDB_MLEADERSTYLE_CLASS
 90
4095
 91
0
280
0
281
0
  0
CLASS
  1
DICTIONARYVAR
  2
AcDbDictionaryVar
  3
ObjectDBX Classes
 90
0
 91
0
280
0
281
0
  0
CLASS
  1
CELLSTYLEMAP
  2
AcDbCellStyleMap
  3
ObjectDBX Classes
 90
1152
 91
0
280
0
281
0
  0
CLASS
  1
MENTALRAYRENDERSETTINGS
  2
AcDbMentalRayRenderSettings
  3
SCENEOE
 90
1024
 91
0
280
0
281
0
  0
CLASS
  1
ACDBDETAILVIEWSTYLE
  2
AcDbDetailViewStyle
  3
ObjectDBX Classes
 90
1025
 91
0
280
0
281
0
  0
CLASS
  1
ACDBSECTIONVIEWSTYLE
  2
AcDbSectionViewStyle
  3
ObjectDBX Classes
 90
1025
 91
0
280
0
281
0
  0
CLASS
  1
RASTERVARIABLES
  2
AcDbRasterVariables
  3
ISM
 90
0
 91
0
280
0
281
0
  0
CLASS
  1
LAYOUT
  2
AcDbLayout
  3
ObjectDBX Classes
 90
0
 91
0
280
0
281
0
  0
CLASS
  1
ACDBPLACEHOLDER
  2
AcDbPlaceHolder
  3
ObjectDBX Classes
 90
0
 91
0
280
0
281
0
  0
ENDSEC
  0
SECTION
  2
TABLES
  0
TABLE
  2
VPORT
  5
8
330
0
100
AcDbSymbolTable
 70
1
  0
VPORT
  5
23
330
8
100
AcDbSymbolTableRecord
100
AcDbViewportTableRecord
  2
*Active
 70
0
 10
0.0
 20
0.0
 11
1.0
 21
1.0
 12
0.0
 22
0.0
 13
0.0
 23
0.0
 14
0.5
 24
0.5
 15
0.5
 25
0.5
 16
0.0
 26
0.0
 36
1.0
 17
0.0
 27
0.0
 37
0.0
 40
1000.0
 41
1.34
 42
50.0
 43
0.0
 44
0.0
 50
0.0
 51
0.0
 71
0
 72
1000
 73
1
 74
3
 75
0
 76
0
 77
0
 78
0
281
0
 65
0
146
0.0
  0
ENDTAB
  0
TABLE
  2
LTYPE
  5
2
330
0
100
AcDbSymbolTable
 70
21
  0
LTYPE
  5
24
330
2
100
AcDbSymbolTableRecord
100
AcDbLinetypeTableRecord
  2
ByBlock
 70
0
  3

 72
65
 73
0
 40
0.0
  0
LTYPE
  5
25
330
2
100
AcDbSymbolTableRecord
100
AcDbLinetypeTableRecord
  2
ByLayer
 70
0
  3

 72
65
 73
0
 40
0.0
  0
LTYPE
  5
26
330
2
100
AcDbSymbolTableRecord
100
AcDbLinetypeTableRecord
  2
Continuous
 70
0
  3

 72
65
 73
0
 40
0.0
  0
LTYPE
  5
2F
330
2
100
AcDbSymbolTableRecord
100
AcDbLinetypeTableRecord
  2
CENTER
 70
0
  3
Center ____ _ ____ _ ____ _ ____ _ ____ _ ____
 72
65
 73
4
 40
5.08
 49
3.175
 74
0
 49
-0.635
 74
0
 49
0.635
 74
0
 49
-0.635
 74
0
  0
LTYPE
  5
30
330
2
100
AcDbSymbolTableRecord
100
AcDbLinetypeTableRecord
  2
CENTERX2
 70
0
  3
Center (2x) ________  __  ________  __  ________
 72
65
 73
4
 40
8.89
 49
6.35
 74
0
 49
-0.635
 74
0
 49
1.27
 74
0
 49
-0.635
 74
0
  0
LTYPE
  5
31
330
2
100
AcDbSymbolTableRecord
100
AcDbLinetypeTableRecord
  2
CENTER2
 70
0
  3
Center (.5x) ____ _ ____ _ ____ _ ____ _ ____
 72
65
 73
4
 40
2.54
 49
1.587
 74
0
 49
-0.318
 74
0
 49
0.318
 74
0
 49
-0.318
 74
0
  0
LTYPE
  5
32
330
2
100
AcDbSymbolTableRecord
100
AcDbLinetypeTableRecord
  2
DASHED
 70
0
  3
Dashed __ __ __ __ __ __ __ __ __ __ __ __ __ _
 72
65
 73
2
 40
1.524
 49
1.27
 74
0
 49
-0.254
 74
0
  0
LTYPE
  5
33
330
2
100
AcDbSymbolTableRecord
100
AcDbLinetypeTableRecord
  2
DASHEDX2
 70
0
  3
Dashed (2x) ____  ____  ____  ____  ____  ____
 72
65
 73
2
 40
3.048
 49
2.54
 74
0
 49
-0.508
 74
0
  0
LTYPE
  5
34
330
2
100
AcDbSymbolTableRecord
100
AcDbLinetypeTableRecord
  2
DASHED2
 70
0
  3
Dashed (.5x) _ _ _ _ _ _ _ _ _ _ _ _ _ _
 72
65
 73
2
 40
0.762
 49
0.635
 74
0
 49
-0.127
 74
0
  0
LTYPE
  5
35
330
2
100
AcDbSymbolTableRecord
100
AcDbLinetypeTableRecord
  2
PHANTOM
 70
0
  3
Phantom ______  __  __  ______  __  __  ______
 72
65
 73
6
 40
6.35
 49
3.175
 74
0
 49
-0.635
 74
0
 49
0.635
 74
0
 49
-0.635
 74
0
 49
0.635
 74
0
 49
-0.635
 74
0
  0
LTYPE
  5
36
330
2
100
AcDbSymbolTableRecord
100
AcDbLinetypeTableRecord
  2
PHANTOMX2
 70
0
  3
Phantom (2x)____________    ____    ____    ____________
 72
65
 73
6
 40
10.795
 49
6.35
 74
0
 49
-0.635
 74
0
 49
1.27
 74
0
 49
-0.635
 74
0
 49
1.27
 74
0
 49
-0.635
 74
0
  0
LTYPE
  5
37
330
2
100
AcDbSymbolTableRecord
100
AcDbLinetypeTableRecord
  2
PHANTOM2
 70
0
  3
Phantom (.5x) ___ _ _ ___ _ _ ___ _ _ ___ _ _ ___
 72
65
 73
6
 40
3.175
 49
1.587
 74
0
 49
-0.318
 74
0
 49
0.318
 74
0
 49
-0.318
 74
0
 49
0.318
 74
0
 49
-0.318
 74
0
  0
LTYPE
  5
38
330
2
100
AcDbSymbolTableRecord
100
AcDbLinetypeTableRecord
  2
DASHDOT
 70
0
  3
Dash dot __ . __ . __ . __ . __ . __ . __ . __
 72
65
 73
4
 40
3.556
 49
2.54
 74
0
 49
-0.508
 74
0
 49
0.0
 74
0
 49
-0.508
 74
0
  0
LTYPE
  5
39
330
2
100
AcDbSymbolTableRecord
100
AcDbLinetypeTableRecord
  2
DASHDOTX2
 70
0
  3
Dash dot (2x) ____  .  ____  .  ____  .  ____
 72
65
 73
4
 40
6.096
 49
5.08
 74
0
 49
-0.508
 74
0
 49
0.0
 74
0
 49
-0.508
 74
0
  0
LTYPE
  5
3A
330
2
100
AcDbSymbolTableRecord
100
AcDbLinetypeTableRecord
  2
DASHDOT2
 70
0
  3
Dash dot (.5x) _ . _ . _ . _ . _ . _ . _ . _
 72
65
 73
4
 40
1.778
 49
1.27
 74
0
 49
-0.254
 74
0
 49
0.0
 74
0
 49
-0.254
 74
0
  0
LTYPE
  5
3B
330
2
100
AcDbSymbolTableRecord
100
AcDbLinetypeTableRecord
  2
DOT
 70
0
  3
Dot .  .  .  .  .  .  .  .  .  .  .  .  .  .  .  .
 72
65
 73
2
 40
0.508
 49
0.0
 74
0
 49
-0.508
 74
0
  0
LTYPE
  5
3C
330
2
100
AcDbSymbolTableRecord
100
AcDbLinetypeTableRecord
  2
DOTX2
 70
0
  3
Dot (2x) .    .    .    .    .    .    .    . 
 72
65
 73
2
 40
1.016
 49
0.0
 74
0
 49
-1.016
 74
0
  0
LTYPE
  5
3D
330
2
100
AcDbSymbolTableRecord
100
AcDbLinetypeTableRecord
  2
DOT2
 70
0
  3
Dot (.5) . . . . . . . . . . . . . . . . . . . 
 72
65
 73
2
 40
0.254
 49
0.0
 74
0
 49
-0.254
 74
0
  0
LTYPE
  5
3E
330
2
100
AcDbSymbolTableRecord
100
AcDbLinetypeTableRecord
  2
DIVIDE
 70
0
  3
Divide __ . . __ . . __ . . __ . . __ . . __
 72
65
 73
6
 40
4.064
 49
2.54
 74
0
 49
-0.508
 74
0
 49
0.0
 74
0
 49
-0.508
 74
0
 49
0.0
 74
0
 49
-0.508
 74
0
  0
LTYPE
  5
3F
330
2
100
AcDbSymbolTableRecord
100
AcDbLinetypeTableRecord
  2
DIVIDEX2
 70
0
  3
Divide (2x) ____  . .  ____  . .  ____  . .  ____
 72
65
 73
6
 40
6.604
 49
5.08
 74
0
 49
-0.508
 74
0
 49
0.0
 74
0
 49
-0.508
 74
0
 49
0.0
 74
0
 49
-0.508
 74
0
  0
LTYPE
  5
40
330
2
100
AcDbSymbolTableRecord
100
AcDbLinetypeTableRecord
  2
DIVIDE2
 70
0
  3
Divide(.5x) _ . _ . _ . _ . _ . _ . _ . _
 72
65
 73
6
 40
2.032
 49
1.27
 74
0
 49
-0.254
 74
0
 49
0.0
 74
0
 49
-0.254
 74
0
 49
0.0
 74
0
 49
-0.254
 74
0
  0
ENDTAB
  0
TABLE
  2
LAYER
  5
1
330
0
100
AcDbSymbolTable
 70
4
  0
LAYER
  5
27
330
1
100
AcDbSymbolTableRecord
100
AcDbLayerTableRecord
  2
0
 70
0
 62
7
  6
Continuous
370
-3
390
13
347
21
  0
LAYER
  5
28
330
1
100
AcDbSymbolTableRecord
100
AcDbLayerTableRecord
  2
Defpoints
 70
0
 62
7
  6
Continuous
290
0
370
-3
390
13
347
21
  0
LAYER
  5
8A
330
1
100
AcDbSymbolTableRecord
100
AcDbLayerTableRecord
  2
CUT
 70
0
 62
1
  6
Continuous
370
-3
390
13
347
21
  0
LAYER
  5
8B
330
1
100
AcDbSymbolTableRecord
100
AcDbLayerTableRecord
  2
ETCH
 70
0
 62
5
  6
Continuous
370
-3
390
13
347
21
  0
ENDTAB
  0
TABLE
  2
STYLE
  5
5
330
0
100
AcDbSymbolTable
 70
28
  0
STYLE
  5
29
330
5
100
AcDbSymbolTableRecord
100
AcDbTextStyleTableRecord
  2
Standard
 70
0
 40
0.0
 41
1.0
 50
0.0
 71
0
 42
2.5
  3
txt
  4

  0
STYLE
  5
41
330
5
100
AcDbSymbolTableRecord
100
AcDbTextStyleTableRecord
  2
OpenSans-Light
 70
0
 40
0.0
 41
1.0
 50
0.0
 71
0
 42
2.5
  3
OpenSans-Light.ttf
  4

  0
STYLE
  5
42
330
5
100
AcDbSymbolTableRecord
100
AcDbTextStyleTableRecord
  2
OpenSans-Light-Italic
 70
0
 40
0.0
 41
1.0
 50
0.0
 71
0
 42
2.5
  3
OpenSans-LightItalic.ttf
  4

  0
STYLE
  5
43
330
5
100
AcDbSymbolTableRecord
100
AcDbTextStyleTableRecord
  2
OpenSans
 70
0
 40
0.0
 41
1.0
 50
0.0
 71
0
 42
2.5
  3
OpenSans-Regular.ttf
  4

  0
STYLE
  5
44
330
5
100
AcDbSymbolTableRecord
100
AcDbTextStyleTableRecord
  2
OpenSans-Italic
 70
0
 40
0.0
 41
1.0
 50
0.0
 71
0
 42
2.5
  3
OpenSans-Italic.ttf
  4

  0
STYLE
  5
45
330
5
100
AcDbSymbolTableRecord
100
AcDbTextStyleTableRecord
  2
OpenSans-SemiBold
 70
0
 40
0.0
 41
1.0
 50
0.0
 71
0
 42
2.5
  3
OpenSans-SemiBold.ttf
  4

  0
STYLE
  5
46
330
5
100
AcDbSymbolTableRecord
100
AcDbTextStyleTableRecord
  2
OpenSans-SemiBoldItalic
 70
0
 40
0.0
 41
1.0
 50
0.0
 71
0
 42
2.5
  3
OpenSans-SemiBoldItalic.ttf
  4

  0
STYLE
  5
47
330
5
100
AcDbSymbolTableRecord
100
AcDbTextStyleTableRecord
  2
OpenSans-Bold
 70
0
 40
0.0
 41
1.0
 50
0.0
 71
0
 42
2.5
  3
OpenSans-Bold.ttf
  4

  0
STYLE
  5
48
330
5
100
AcDbSymbolTableRecord
100
AcDbTextStyleTableRecord
  2
OpenSans-BoldItalic
 70
0
 40
0.0
 41
1.0
 50
0.0
 71
0
 42
2.5
  3
OpenSans-BoldItalic.ttf
  4

  0
STYLE
  5
49
330
5
100
AcDbSymbolTableRecord
100
AcDbTextStyleTableRecord
  2
OpenSans-ExtraBold
 70
0
 40
0.0
 41
1.0
 50
0.0
 71
0
 42
2.5
  3
OpenSans-ExtraBold.ttf
  4

  0
STYLE
  5
4A
330
5
100
AcDbSymbolTableRecord
100
AcDbTextStyleTableRecord
  2
OpenSans-ExtraBoldItalic
 70
0
 40
0.0
 41
1.0
 50
0.0
 71
0
 42
2.5
  3
OpenSans-ExtraBoldItalic.ttf
  4

  0
STYLE
  5
4B
330
5
100
AcDbSymbolTableRecord
100
AcDbTextStyleTableRecord
  2
OpenSansCondensed-Bold
 70
0
 40
0.0
 41
1.0
 50
0.0
 71
0
 42
2.5
  3
OpenSansCondensed-Bold.ttf
  4

  0
STYLE
  5
4C
330
5
100
AcDbSymbolTableRecord
100
AcDbTextStyleTableRecord
  2
OpenSansCondensed-Light
 70
0
 40
0.0
 41
1.0
 50
0.0
 71
0
 42
2.5
  3
OpenSansCondensed-Light.ttf
  4

  0
STYLE
  5
4D
330
5
100
AcDbSymbolTableRecord
100
AcDbTextStyleTableRecord
  2
OpenSansCondensed-Italic
 70
0
 40
0.0
 41
1.0
 50
0.0
 71
0
 42
2.5
  3
OpenSansCondensed-LightItalic.ttf
  4

  0
STYLE
  5
4E
330
5
100
AcDbSymbolTableRecord
100
AcDbTextStyleTableRecord
  2
LiberationSans
 70
0
 40
0.0
 41
1.0
 50
0.0
 71
0
 42
2.5
  3
LiberationSans-Regular.ttf
  4

  0
STYLE
  5
4F
330
5
100
AcDbSymbolTableRecord
100
AcDbTextStyleTableRecord
  2
LiberationSans-Bold
 70
0
 40
0.0
 41
1.0
 50
0.0
 71
0
 42
2.5
  3
LiberationSans-Bold.ttf
  4

  0
STYLE
  5
50
330
5
100
AcDbSymbolTableRecord
100
AcDbTextStyleTableRecord
  2
LiberationSans-BoldItalic
 70
0
 40
0.0
 41
1.0
 50
0.0
 71
0
 42
2.5
  3
LiberationSans-BoldItalic.ttf
  4

  0
STYLE
  5
51
330
5
100
AcDbSymbolTableRecord
100
AcDbTextStyleTableRecord
  2
LiberationSans-Italic
 70
0
 40
0.0
 41
1.0
 50
0.0
 71
0
 42
2.5
  3
LiberationSans-Italic.ttf
  4

  0
STYLE
  5
52
330
5
100
AcDbSymbolTableRecord
100
AcDbTextStyleTableRecord
  2
LiberationSerif
 70
0
 40
0.0
 41
1.0
 50
0.0
 71
0
 42
2.5
  3
LiberationSerif-Regular.ttf
  4

  0
STYLE
  5
53
330
5
100
AcDbSymbolTableRecord
100
AcDbTextStyleTableRecord
  2
LiberationSerif-Bold
 70
0
 40
0.0
 41
1.0
 50
0.0
 71
0
 42
2.5
  3
LiberationSerif-Bold.ttf
  4

  0
STYLE
  5
54
330
5
100
AcDbSymbolTableRecord
100
AcDbTextStyleTableRecord
  2
LiberationSerif-BoldItalic
 70
0
 40
0.0
 41
1.0
 50
0.0
 71
0
 42
2.5
  3
LiberationSerif-BoldItalic.ttf
  4

  0
STYLE
  5
55
330
5
100
AcDbSymbolTableRecord
100
AcDbTextStyleTableRecord
  2
LiberationSerif-Italic
 70
0
 40
0.0
 41
1.0
 50
0.0
 71
0
 42
2.5
  3
LiberationSerif-Italic.ttf
  4

  0
STYLE
  5
56
330
5
100
AcDbSymbolTableRecord
100
AcDbTextStyleTableRecord
  2
LiberationMono
 70
0
 40
0.0
 41
1.0
 50
0.0
 71
0
 42
2.5
  3
LiberationMono-Regular.ttf
  4

  0
STYLE
  5
57
330
5
100
AcDbSymbolTableRecord
100
AcDbTextStyleTableRecord
  2
LiberationMono-Bold
 70
0
 40
0.0
 41
1.0
 50
0.0
 71
0
 42
2.5
  3
LiberationMono-Bold.ttf
  4

  0
STYLE
  5
58
330
5
100
AcDbSymbolTableRecord
100
AcDbTextStyleTableRecord
  2
LiberationMono-BoldItalic
 70
0
 40
0.0
 41
1.0
 50
0.0
 71
0
 42
2.5
  3
LiberationMono-BoldItalic.ttf
  4

  0
STYLE
  5
59
330
5
100
AcDbSymbolTableRecord
100
AcDbTextStyleTableRecord
  2
LiberationMono-Italic
 70
0
 40
0.0
 41
1.0
 50
0.0
 71
0
 42
2.5
  3
LiberationMono-Italic.ttf
  4

  0
STYLE
  5
8C
330
5
100
AcDbSymbolTableRecord
100
AcDbTextStyleTableRecord
  2
Ubuntu
 70
0
 40
0.0
 41
1.0
 50
0.0
 71
0
 42
2.5
  3
Ubuntu-R.ttf
  4

  0
STYLE
  5
8D
330
5
100
AcDbSymbolTableRecord
100
AcDbTextStyleTableRecord
  2
UbuntuBold
 70
0
 40
0.0
 41
1.0
 50
0.0
 71
0
 42
2.5
  3
Ubuntu-Bold.ttf
  4

  0
ENDTAB
  0
TABLE
  2
VIEW
  5
7
330
0
100
AcDbSymbolTable
 70
0
  0
ENDTAB
  0
TABLE
  2
UCS
  5
6
330
0
100
AcDbSymbolTable
 70
0
  0
ENDTAB
  0
TABLE
  2
APPID
  5
3
330
0
100
AcDbSymbolTable
 70
3
  0
APPID
  5
2A
330
3
100
AcDbSymbolTableRecord
100
AcDbRegAppTableRecord
  2
ACAD
 70
0
  0
APPID
  5
9F
330
3
100
AcDbSymbolTableRecord
100
AcDbRegAppTableRecord
  2
HATCHBACKGROUNDCOLOR
 70
0
  0
APPID
  5
A0
330
3
100
AcDbSymbolTableRecord
100
AcDbRegAppTableRecord
  2
EZDXF
 70
0
  0
ENDTAB
  0
TABLE
  2
DIMSTYLE
  5
4
330
0
100
AcDbSymbolTable
 70
12
100
AcDbDimStyleTable
  0
DIMSTYLE
105
2B
330
4
100
AcDbSymbolTableRecord
100
AcDbDimStyleTableRecord
  2
Standard
 70
0
 40
1.0
 41
2.5
 42
0.625
 43
3.75
 44
1.25
 45
0.0
 46
0.0
 47
0.0
 48
0.0
 49
2.5
140
2.5
141
2.5
142
0.0
143
0.03937007874
144
1.0
145
0.0
146
1.0
147
0.625
148
0.0
 69
0
 70
0
 71
0
 72
0
 73
0
 74
0
 75
0
 76
0
 77
1
 78
8
 79
3
170
0
171
3
172
1
173
0
174
0
175
0
176
0
177
0
178
0
179
2
271
2
272
2
273
2
274
3
275
0
276
0
277
2
278
44
279
0
280
0
281
0
282
0
283
0
284
8
285
0
286
0
288
0
289
3
290
0
371
-2
372
-2
  0
DIMSTYLE
105
73
330
4
100
AcDbSymbolTableRecord
100
AcDbDimStyleTableRecord
  2
EZDXF
 70
0
 40
1.0
 41
0.175
 42
0.125
 43
3.75
 44
0.375
 45
0.0
 46
0.0
 47
0.0
 48
0.0
 49
2.5
140
0.25
141
2.5
142
0.0
143
0.03937007874
144
100.0
145
0.0
146
0.5
147
0.1
148
0.0
 69
0
 70
0
 71
0
 72
0
 73
0
 74
0
 75
0
 76
0
 77
1
 78
12
 79
3
170
0
171
3
172
1
173
0
174
0
175
0
176
0
177
0
178
0
179
2
271
2
272
2
273
2
274
3
275
0
276
0
277
2
278
46
279
2
280
0
281
0
282
0
283
0
284
8
285
0
286
0
288
1
289
3
290
0
340
4C
342
74
371
-2
372
-2
  0
DIMSTYLE
105
7C
330
4
100
AcDbSymbolTableRecord
100
AcDbDimStyleTableRecord
  2
EZ_M_100_H25_CM
 70
0
 40
1.0
 41
0.25
 42
0.125
 43
3.75
 44
0.375
 45
0.0
 46
0.0
 47
0.0
 48
0.0
 49
2.5
140
0.25
141
2.5
142
0.125
143
0.03937007874
144
100.0
145
0.0
146
0.5
147
0.1
148
0.0
 69
0
 70
0
 71
0
 72
0
 73
0
 74
0
 75
0
 76
0
 77
1
 78
12
 79
3
170
0
171
3
172
1
173
0
174
0
175
0
176
0
177
0
178
0
179
2
271
2
272
2
273
2
274
3
275
0
276
0
277
2
278
46
279
2
280
0
281
0
282
0
283
0
284
8
285
0
286
0
288
1
289
3
290
0
340
4C
371
-2
372
-2
  0
DIMSTYLE
105
7D
330
4
100
AcDbSymbolTableRecord
100
AcDbDimStyleTableRecord
  2
EZ_M_50_H25_CM
 70
0
 40
1.0
 41
0.125
 42
0.0625
 43
3.75
 44
0.1875
 45
0.0
 46
0.0
 47
0.0
 48
0.0
 49
2.5
140
0.125
141
2.5
142
0.0625
143
0.03937007874
144
100.0
145
0.0
146
0.5
147
0.05
148
0.0
 69
0
 70
0
 71
0
 72
0
 73
0
 74
0
 75
0
 76
0
 77
1
 78
12
 79
3
170
0
171
3
172
1
173
0
174
0
175
0
176
0
177
0
178
0
179
2
271
2
272
2
273
2
274
3
275
0
276
0
277
2
278
46
279
2
280
0
281
0
282
0
283
0
284
8
285
0
286
0
288
1
289
3
290
0
340
4C
371
-2
372
-2
  0
DIMSTYLE
105
7E
330
4
100
AcDbSymbolTableRecord
100
AcDbDimStyleTableRecord
  2
EZ_M_25_H25_CM
 70
0
 40
1.0
 41
0.0625
 42
0.03125
 43
3.75
 44
0.09375
 45
0.0
 46
0.0
 47
0.0
 48
0.0
 49
2.5
140
0.0625
141
2.5
142
0.03125
143
0.03937007874
144
100.0
145
0.0
146
0.5
147
0.025
148
0.0
 69
0
 70
0
 71
0
 72
0
 73
0
 74
0
 75
0
 76
0
 77
1
 78
12
 79
3
170
0
171
3
172
1
173
0
174
0
175
0
176
0
177
0
178
0
179
2
271
2
272
2
273
2
274
3
275
0
276
0
277
2
278
46
279
2
280
0
281
0
282
0
283
0
284
8
285
0
286
0
288
1
289
3
290
0
340
4C
371
-2
372
-2
  0
DIMSTYLE
105
7F
330
4
100
AcDbSymbolTableRecord
100
AcDbDimStyleTableRecord
  2
EZ_M_20_H25_CM
 70
0
 40
1.0
 41
0.05
 42
0.025
 43
3.75
 44
0.07500000000000001
 45
0.0
 46
0.0
 47
0.0
 48
0.0
 49
2.5
140
0.05
141
2.5
142
0.025
143
0.03937007874
144
100.0
145
0.0
146
0.5
147
0.020000000000000004
148
0.0
 69
0
 70
0
 71
0
 72
0
 73
0
 74
0
 75
0
 76
0
 77
1
 78
12
 79
3
170
0
171
3
172
1
173
0
174
0
175
0
176
0
177
0
178
0
179
2
271
2
272
2
273
2
274
3
275
0
276
0
277
2
278
46
279
2
280
0
281
0
282
0
283
0
284
8
285
0
286
0
288
1
289
3
290
0
340
4C
371
-2
372
-2
  0
DIMSTYLE
105
80
330
4
100
AcDbSymbolTableRecord
100
AcDbDimStyleTableRecord
  2
EZ_M_10_H25_CM
 70
0
 40
1.0
 41
0.025
 42
0.0125
 43
3.75
 44
0.037500000000000006
 45
0.0
 46
0.0
 47
0.0
 48
0.0
 49
2.5
140
0.025
141
2.5
142
0.0125
143
0.03937007874
144
100.0
145
0.0
146
0.5
147
0.010000000000000002
148
0.0
 69
0
 70
0
 71
0
 72
0
 73
0
 74
0
 75
0
 76
0
 77
1
 78
12
 79
3
170
0
171
3
172
1
173
0
174
0
175
0
176
0
177
0
178
0
179
2
271
2
272
2
273
2
274
3
275
0
276
0
277
2
278
46
279
2
280
0
281
0
282
0
283
0
284
8
285
0
286
0
288
1
289
3
290
0
340
4C
371
-2
372
-2
  0
DIMSTYLE
105
81
330
4
100
AcDbSymbolTableRecord
100
AcDbDimStyleTableRecord
  2
EZ_M_5_H25_CM
 70
0
 40
1.0
 41
0.0125
 42
0.00625
 43
3.75
 44
0.018750000000000003
 45
0.0
 46
0.0
 47
0.0
 48
0.0
 49
2.5
140
0.0125
141
2.5
142
0.00625
143
0.03937007874
144
100.0
145
0.0
146
0.5
147
0.005000000000000001
148
0.0
 69
0
 70
0
 71
0
 72
0
 73
0
 74
0
 75
0
 76
0
 77
1
 78
12
 79
3
170
0
171
3
172
1
173
0
174
0
175
0
176
0
177
0
178
0
179
2
271
2
272
2
273
2
274
3
275
0
276
0
277
2
278
46
279
2
280
0
281
0
282
0
283
0
284
8
285
0
286
0
288
1
289
3
290
0
340
4C
371
-2
372
-2
  0
DIMSTYLE
105
82
330
4
100
AcDbSymbolTableRecord
100
AcDbDimStyleTableRecord
  2
EZ_M_1_H25_CM
 70
0
 40
1.0
 41
0.0025
 42
0.00125
 43
3.75
 44
0.00375
 45
0.0
 46
0.0
 47
0.0
 48
0.0
 49
2.5
140
0.0025
141
2.5
142
0.00125
143
0.03937007874
144
100.0
145
0.0
146
0.5
147
0.001
148
0.0
 69
0
 70
0
 71
0
 72
0
 73
0
 74
0
 75
0
 76
0
 77
1
 78
12
 79
3
170
0
171
3
172
1
173
0
174
0
175
0
176
0
177
0
178
0
179
2
271
2
272
2
273
2
274
3
275
0
276
0
277
2
278
46
279
2
280
0
281
0
282
0
283
0
284
8
285
0
286
0
288
1
289
3
290
0
340
4C
371
-2
372
-2
  0
DIMSTYLE
105
83
330
4
100
AcDbSymbolTableRecord
100
AcDbDimStyleTableRecord
  2
EZ_RADIUS
 70
0
 40
1.0
 41
0.25
 42
0.125
 43
3.75
 44
0.375
 45
0.0
 46
0.0
 47
0.0
 48
0.0
 49
2.5
140
0.25
141
0.0
142
0.0
143
0.03937007874
144
100.0
145
0.0
146
0.5
147
0.1
148
0.0
 69
0
 70
0
 71
0
 72
0
 73
0
 74
0
 75
0
 76
0
 77
1
 78
12
 79
3
170
0
171
3
172
0
173
0
174
0
175
0
176
0
177
0
178
0
179
2
271
2
272
2
273
2
274
3
275
0
276
0
277
2
278
46
279
1
280
0
281
0
282
0
283
0
284
8
285
0
286
0
288
1
289
3
290
0
340
4C
342
84
371
-2
372
-2
  0
DIMSTYLE
105
88
330
4
100
AcDbSymbolTableRecord
100
AcDbDimStyleTableRecord
  2
EZ_RADIUS_INSIDE
 70
0
 40
1.0
 41
0.25
 42
0.125
 43
3.75
 44
0.375
 45
0.0
 46
0.0
 47
0.0
 48
0.0
 49
2.5
140
0.25
141
0.0
142
0.0
143
0.03937007874
144
100.0
145
0.0
146
0.5
147
0.1
148
0.0
 69
0
 70
0
 71
0
 72
0
 73
0
 74
0
 75
0
 76
0
 77
0
 78
12
 79
3
170
0
171
3
172
0
173
0
174
1
175
0
176
0
177
0
178
0
179
2
271
2
272
2
273
2
274
3
275
0
276
0
277
2
278
46
279
0
280
0
281
0
282
0
283
0
284
8
285
0
286
0
288
1
289
0
290
0
340
4C
342
84
371
-2
372
-2
  0
DIMSTYLE
105
89
330
4
100
AcDbSymbolTableRecord
100
AcDbDimStyleTableRecord
  2
EZ_CURVED
 70
0
 40
1.0
 41
0.25
 42
0.125
 43
3.75
 44
0.375
 45
0.0
 46
0.0
 47
0.0
 48
0.0
 49
2.5
140
0.25
141
2.5
142
0.0
143
0.03937007874
144
100.0
145
0.0
146
0.5
147
0.1
148
0.0
 69
0
 70
0
 71
0
 72
0
 73
0
 74
0
 75
0
 76
0
 77
1
 78
12
 79
2
 90
2
170
0
171
3
172
1
173
0
174
0
175
0
176
0
177
0
178
0
179
2
271
2
272
2
273
2
274
3
275
0
276
0
277
2
278
46
279
2
280
0
281
0
282
0
283
0
284
8
285
0
286
0
288
1
289
3
290
0
340
4C
371
-2
372
-2
  0
ENDTAB
  0
TABLE
  2
BLOCK_RECORD
  5
9
330
0
100
AcDbSymbolTable
 70
5
  0
BLOCK_RECORD
  5
17
330
9
100
AcDbSymbolTableRecord
100
AcDbBlockTableRecord
  2
*Model_Space
340
1A
 70
0
280
1
281
0
  0
BLOCK_RECORD
  5
1B
330
9
100
AcDbSymbolTableRecord
100
AcDbBlockTableRecord
  2
*Paper_Space
340
1E
 70
0
280
1
281
0
  0
BLOCK_RECORD
  5
74
330
9
100
AcDbSymbolTableRecord
100
AcDbBlockTableRecord
  2
_ARCHTICK
340
0
 70
0
280
1
281
0
  0
BLOCK_RECORD
  5
78
330
9
100
AcDbSymbolTableRecord
100
AcDbBlockTableRecord
  2
_CLOSEDFILLED
340
0
 70
0
280
1
281
0
  0
BLOCK_RECORD
  5
84
330
9
100
AcDbSymbolTableRecord
100
AcDbBlockTableRecord
  2
_CLOSEDBLANK
340
0
 70
0
280
1
281
0
  0
ENDTAB
  0
ENDSEC
  0
SECTION
  2
BLOCKS
  0
BLOCK
  5
18
330
17
100
AcDbEntity
  8
0
100
AcDbBlockBegin
  2
*Model_Space
 70
0
 10
0.0
 20
0.0
 30
0.0
  3
*Model_Space
  1

  0
ENDBLK
  5
19
330
17
100
AcDbEntity
  8
0
100
AcDbBlockEnd
  0
BLOCK
  5
1C
330
1B
100
AcDbEntity
  8
0
100
AcDbBlockBegin
  2
*Paper_Space
 70
0
 10
0.0
 20
0.0
 30
0.0
  3
*Paper_Space
  1

  0
ENDBLK
  5
1D
330
1B
100
AcDbEntity
  8
0
100
AcDbBlockEnd
  0
BLOCK
  5
75
330
74
100
AcDbEntity
  8
0
100
AcDbBlockBegin
  2
_ARCHTICK
 70
0
 10
0.0
 20
0.0
 30
0.0
  3
_ARCHTICK
  1

  0
LWPOLYLINE
  5
77
330
74
100
AcDbEntity
  8
0
  6
BYBLOCK
 62
0
100
AcDbPolyline
 90
2
 70
0
 43
0.15
 10
-0.5
 20
-0.5
 10
0.5
 20
0.5
  0
ENDBLK
  5
76
330
74
100
AcDbEntity
  8
0
100
AcDbBlockEnd
  0
BLOCK
  5
79
330
78
100
AcDbEntity
  8
0
100
AcDbBlockBegin
  2
_CLOSEDFILLED
 70
0
 10
0.0
 20
0.0
 30
0.0
  3
_CLOSEDFILLED
  1

  0
SOLID
  5
7B
330
78
100
AcDbEntity
  8
0
  6
BYBLOCK
 62
0
100
AcDbTrace
 10
-1.0
 20
0.16439898372402537
 30
0.0
 11
0.0
 21
0.0
 31
0.0
 12
-1.0
 22
-0.16439898372402537
 32
0.0
 13
-1.0
 23
-0.16439898372402537
 33
0.0
  0
ENDBLK
  5
7A
330
78
100
AcDbEntity
  8
0
100
AcDbBlockEnd
  0
BLOCK
  5
85
330
84
100
AcDbEntity
  8
0
100
AcDbBlockBegin
  2
_CLOSEDBLANK
 70
0
 10
0.0
 20
0.0
 30
0.0
  3
_CLOSEDBLANK
  1

  0
LWPOLYLINE
  5
87
330
84
100
AcDbEntity
  8
0
  6
BYBLOCK
 62
0
100
AcDbPolyline
 90
3
 70
1
 10
-1.0
 20
0.16439898372402537
 10
0.0
 20
0.0
 10
-1.0
 20
-0.16439898372402537
  0
ENDBLK
  5
86
330
84
100
AcDbEntity
  8
0
100
AcDbBlockEnd
  0
ENDSEC
  0
SECTION
  2
ENTITIES
  0
LWPOLYLINE
  5
8E
330
17
100
AcDbEntity
  8
CUT
100
AcDbPolyline
 90
8
 70
1
 10
3.0
 20
0.0
 10
47.0
 20
0.0
 42
0.41421356237309503
 10
50.0
 20
3.0
 10
50.0
 20
72.0
 42
0.41421356237309503
 10
47.0
 20
75.0
 10
3.0
 20
75.0
 42
0.41421356237309503
 10
0.0
 20
72.0
 10
0.0
 20
3.0
 42
0.41421356237309503
  0
LWPOLYLINE
  5
8F
330
17
100
AcDbEntity
  8
ETCH
100
AcDbPolyline
 90
8
 70
1
 10
3.0
 20
1.0
 10
47.0
 20
1.0
 42
0.41421356237309503
 10
49.0
 20
3.0
 10
49.0
 20
72.0
 42
0.41421356237309503
 10
47.0
 20
74.0
 10
3.0
 20
74.0
 42
0.41421356237309503
 10
1.0
 20
72.0
 10
1.0
 20
3.0
 42
0.41421356237309503
  0
LWPOLYLINE
  5
90
330
17
100
AcDbEntity
  8
ETCH
100
AcDbPolyline
 90
8
 70
1
 10
3.0
 20
2.0
 10
47.0
 20
2.0
 42
0.41421356237309503
 10
48.0
 20
3.0
 10
48.0
 20
72.0
 42
0.41421356237309503
 10
47.0
 20
73.0
 10
3.0
 20
73.0
 42
0.41421356237309503
 10
2.0
 20
72.0
 10
2.0
 20
3.0
 42
0.41421356237309503
  0
LWPOLYLINE
  5
91
330
17
100
AcDbEntity
  8
CUT
100
AcDbPolyline
 90
8
 70
1
 10
20.0
 20
65.25
 10
30.0
 20
65.25
 42
0.41421356237309503
 10
31.75
 20
67.0
 10
31.75
 20
67.0
 42
0.41421356237309503
 10
30.0
 20
68.75
 10
20.0
 20
68.75
 42
0.41421356237309503
 10
18.25
 20
67.0
 10
18.25
 20
67.0
 42
0.41421356237309503
  0
LWPOLYLINE
  5
92
330
17
100
AcDbEntity
  8
ETCH
100
AcDbPolyline
 90
122
 70
0
 10
20.231883670534863
 20
45.41756711704764
 10
20.221172159271184
 20
45.41288706432793
 10
20.210471079912118
 20
45.408141100938195
 10
20.199781380812617
 20
45.403329701055924
 10
20.18910401032766
 20
45.39845333885857
 10
20.1784399168122
 20
45.39351248852367
 10
20.167790048621203
 20
45.38850762422865
 10
20.15715535410964
 20
45.383439220151025
 10
20.146536781632477
 20
45.37830775046827
 10
20.135935279544668
 20
45.37311368935785
 10
20.12535179620118
 20
45.367857510997275
 10
20.114787279956985
 20
45.36253968956402
 10
20.104242679167037
 20
45.35716069923554
 10
20.09371894218631
 20
45.35172101418936
 10
20.083217017369762
 20
45.34622110860293
 10
20.07273785307236
 20
45.34066145665375
 10
20.062282397649067
 20
45.33504253251928
 10
20.05185159945485
 20
45.32936481037704
 10
20.04144640684467
 20
45.323628764404475
 10
20.031067768173493
 20
45.31783486877909
 10
20.020716631796283
 20
45.31198359767835
 10
19.868186380506234
 20
45.22202999550683
 10
19.71749593784712
 20
45.129521999238705
 10
19.568664270918205
 20
45.034475256730914
 10
19.4217103468188
 20
44.936905415840336
 10
19.276653132648182
 20
44.8368281244239
 10
19.133511595505638
 20
44.73425903033853
 10
18.992304702490465
 20
44.62921378144111
 10
18.85305142070195
 20
44.521708025588566
 10
18.71577071723937
 20
44.41175741063782
 10
18.58048155920202
 20
44.29937758444578
 10
18.447202913689182
 20
44.184584194869345
 10
18.315953747800158
 20
44.06739288976544
 10
18.18675302863422
 20
43.94781931699099
 10
18.059619723290666
 20
43.825879124402874
 10
17.93457279886878
 20
43.70158795985803
 10
17.811631222467852
 20
43.574961471213356
 10
17.69081396118716
 20
43.44601530632579
 10
17.57213998212601
 20
43.31476511305222
 10
17.455628252383676
 20
43.18122653924956
 10
17.34129773905945
 20
43.04541523277473
 10
17.22587843520652
 20
43.15091877420869
 10
17.107757742237514
 20
43.25245250176168
 10
16.986880181387008
 20
43.349896922708226
 10
16.863190273889593
 20
43.443132544322765
 10
16.73663254097984
 20
43.53203987387982
 10
16.607151503892347
 20
43.61649941865386
 10
16.47469168386169
 20
43.696391685919366
 10
16.339197602122447
 20
43.77159718295084
 10
16.20061377990921
 20
43.84199641702276
 10
16.058884738456555
 20
43.90746989540961
 10
15.91395499899907
 20
43.96789812538589
 10
15.765769082771333
 20
44.02316161422607
 10
15.614271511007932
 20
44.07314086920464
 10
15.459406804943445
 20
44.1177163975961
 10
15.301119485812457
 20
44.15676870667491
 10
15.139354074849553
 20
44.19017830371557
 10
14.97405509328931
 20
44.21782569599257
 10
14.80516706236632
 20
44.239591390780404
 10
14.632634503315156
 20
44.25535589535353
 10
14.456401937370408
 20
44.264999716986466
 10
14.01575457232372
 20
44.26440351783218
 10
13.600216327491834
 20
44.230944922451684
 10
13.208598439926877
 20
44.16662306310994
 10
12.839712146680982
 20
44.07343707207185
 10
12.49236868480628
 20
43.9533860816024
 10
12.165379291354899
 20
43.808469223966526
 10
11.857555203378977
 20
43.640685631429136
 10
11.56770765793064
 20
43.45203443625522
 10
11.29464789206202
 20
43.2445147707097
 10
11.037187142825246
 20
43.020125767057536
 10
10.794136647272454
 20
42.78086655756364
 10
10.564307642455773
 20
42.528736274493
 10
10.34651136542733
 20
42.265734050110524
 10
10.139559053239262
 20
41.99385901668118
 10
9.942261942943698
 20
41.715110306469896
 10
9.753431271592767
 20
41.43148705174161
 10
9.571878276238603
 20
41.144988384761305
 10
9.396414193933337
 20
40.85761343779388
 10
9.225850261729098
 20
40.57136134310431
 10
9.058997716678018
 20
40.288231232957514
 10
8.76641195432915
 20
40.831515262380805
 10
8.500403365679967
 20
41.40522204488438
 10
8.264191141657102
 20
42.00442914402558
 10
8.060994473187199
 20
42.624214123361696
 10
7.894032551196892
 20
43.25965454645005
 10
7.766524566612821
 20
43.90582797684794
 10
7.681689710361623
 20
44.55781197811267
 10
7.642747173369937
 20
45.21068411380155
 10
7.652916146564402
 20
45.859521947471904
 10
7.715415820871655
 20
46.49940304268103
 10
7.833465387218335
 20
47.12540496298624
 10
8.010284036531079
 20
47.732605271944834
 10
8.249090959736527
 20
48.31608153311414
 10
8.553105347761315
 20
48.87091131005144
 10
8.925546391532084
 20
49.39217216631406
 10
9.36963328197547
 20
49.87494166545931
 10
9.88858521001811
 20
50.31429737104449
 10
10.485621366586647
 20
50.705316846626914
 10
11.163960942607716
 20
51.04307765576389
 10
11.926823129007955
 20
51.32265736201273
 10
12.373131461925855
 20
51.4311668725655
 10
12.821525227410461
 20
51.483734820478546
 10
13.271112023440274
 20
51.48260122017777
 10
13.720999447993801
 20
51.430006086089065
 10
14.170295099049545
 20
51.32818943263836
 10
14.618106574586008
 20
51.17939127425153
 10
15.063541472581704
 20
50.98585162535447
 10
15.505707391015127
 20
50.7498105003731
 10
15.943711927864788
 20
50.473507913733314
 10
16.376662681109185
 20
50.15918387986101
 10
16.803667248726832
 20
49.80907841318209
 10
17.223833228696222
 20
49.42543152812245
 10
17.63626821899587
 20
49.010483239108
 10
18.040079817604273
 20
48.56647356056463
 10
18.434375622499942
 20
48.095642506918246
 10
18.818263231661376
 20
47.60023009259475
 10
19.190850243067075
 20
47.08247633202004
 10
19.55124425469556
 20
46.54462123962002
 10
19.89855286452532
 20
45.988904829820584
 10
20.231883670534863
 20
45.41756711704764
 10
20.231883670534863
 20
45.41756711704764
  0
LWPOLYLINE
  5
93
330
17
100
AcDbEntity
  8
ETCH
100
AcDbPolyline
 90
122
 70
0
 10
40.94016267306017
 20
40.288231232957514
 10
40.773251962237936
 20
40.571361343104314
 10
40.602698145819986
 20
40.85761343779387
 10
40.427304874018716
 20
41.144988384761305
 10
40.24587579704658
 20
41.43148705174161
 10
40.057214565115956
 20
41.715110306469896
 10
39.860124828439254
 20
41.993859016681185
 10
39.65341023722894
 20
42.265734050110524
 10
39.43587444169739
 20
42.528736274493
 10
39.206321092057024
 20
42.78086655756365
 10
38.96355383852027
 20
43.02012576705753
 10
38.70637633129953
 20
43.2445147707097
 10
38.433592220607224
 20
43.45203443625522
 10
38.144005156655766
 20
43.640685631429136
 10
37.836418789657586
 20
43.80846922396651
 10
37.50963676982509
 20
43.9533860816024
 10
37.1624627473707
 20
44.073437072071854
 10
36.79370037250681
 20
44.16662306310994
 10
36.40215329544587
 20
44.23094492245169
 10
35.986625166400266
 20
44.26440351783218
 10
35.54591963558243
 20
44.264999716986466
 10
35.36968286526401
 20
44.255355816323956
 10
35.197137945986476
 20
44.239590758543756
 10
35.028229778326406
 20
44.21782356219391
 10
34.86290326286037
 20
44.19017324582242
 10
34.70110330016492
 20
44.15675882797736
 10
34.54277479081665
 20
44.117699327206736
 10
34.38786263539211
 20
44.07311376205858
 10
34.236311734467876
 20
44.02312115108092
 10
34.088066988620525
 20
43.967840512821795
 10
33.9430732984266
 20
43.90739086582926
 10
33.801275564462685
 20
43.84189122865129
 10
33.66261868730536
 20
43.77146061983596
 10
33.527047567531184
 20
43.696218057931304
 10
33.39450710571671
 20
43.616282561485335
 10
33.26494220243853
 20
43.53177314904609
 10
33.13829775827321
 20
43.442808839161586
 10
33.0145186737973
 20
43.34950865037989
 10
32.8935498495874
 20
43.25199160124899
 10
32.775336186220045
 20
43.150376710316955
 10
32.65982258427182
 20
43.0447829961318
 10
32.54540663997122
 20
43.18058979792055
 10
32.42882797217432
 20
43.31411580601993
 10
32.31010507380291
 20
43.44534679510547
 10
32.18925643777883
 20
43.57426853985271
 10
32.06630055702385
 20
43.700866814937186
 10
31.941255924459785
 20
43.825127395034436
 10
31.814141033008465
 20
43.947036054819975
 10
31.68497437559166
 20
44.06657856896935
 10
31.553774445131207
 20
44.1837407121581
 10
31.42055973454889
 20
44.29850825906175
 10
31.28534873676652
 20
44.410866984355835
 10
31.14815994470591
 20
44.520802662715894
 10
31.00901185128885
 20
44.628301068817464
 10
30.867922949437162
 20
44.73334797733607
 10
30.72491173207265
 20
44.83592916294724
 10
30.57999669211711
 20
44.93603040032652
 10
30.43319632249235
 20
45.03363746414945
 10
30.28452911612019
 20
45.12873612909155
 10
30.134013565922416
 20
45.221312169828366
 10
29.981668164820846
 20
45.31135136103542
 10
29.97121753020195
 20
45.31729723054386
 10
29.96073038391694
 20
45.323184302044496
 10
29.95020814849823
 20
45.329010678827416
 10
29.9396522464783
 20
45.33477446418267
 10
29.92906410038957
 20
45.340473761400375
 10
29.918445132764493
 20
45.346106673770564
 10
29.907796766135533
 20
45.351671304583306
 10
29.897120423035116
 20
45.35716575712868
 10
29.886417525995704
 20
45.36258813469678
 10
29.875689497549722
 20
45.367936540577645
 10
29.864937760229637
 20
45.37320907806136
 10
29.854163736567887
 20
45.37840385043799
 10
29.843368849096922
 20
45.38351896099762
 10
29.832554520349188
 20
45.388552513030305
 10
29.82172217285713
 20
45.39350260982612
 10
29.810873229153195
 20
45.398367354675145
 10
29.800009111769825
 20
45.40314485086745
 10
29.78913124323948
 20
45.40783320169309
 10
29.778241046094593
 20
45.41243051044215
 10
29.767339942867615
 20
45.41693488040471
 10
30.100860783406105
 20
45.98827717689332
 10
30.44837678266067
 20
46.54400670560309
 10
30.80899202969642
 20
47.08188250375318
 10
31.181810613578524
 20
47.59966360856268
 10
31.56593662337208
 20
48.09510905725078
 10
31.960474148142254
 20
48.56597788703658
 10
32.36452727695418
 20
49.01002913513922
 10
32.77720009887298
 20
49.42502183877782
 10
33.19759670296381
 20
49.808715035171566
 10
33.62482117829177
 20
50.15886776153955
 10
34.057977613922034
 20
50.47323905510091
 10
34.49617009891972
 20
50.749587953074794
 10
34.938502722349966
 20
50.985673492680334
 10
35.38407957327791
 20
51.17925471113665
 10
35.832004740768696
 20
51.328090645662904
 10
36.28138231388745
 20
51.429940333478214
 10
36.7313163816993
 20
51.482562811801714
 10
37.18091103326941
 20
51.48371711785254
 10
37.62927035766289
 20
51.43116228884983
 10
38.07549844394488
 20
51.32265736201273
 10
38.83833320708073
 20
51.043077655763895
 10
39.516594622846824
 20
50.705316846626914
 10
40.11350804647705
 20
50.31429737104449
 10
40.632298833205326
 20
49.8749416654593
 10
41.07619233826556
 20
49.39217216631406
 10
41.44841391689164
 20
48.87091131005145
 10
41.752188924317494
 20
48.31608153311414
 10
41.990742715777046
 20
47.732605271944834
 10
42.16730064650416
 20
47.12540496298624
 10
42.28508807173276
 20
46.49940304268104
 10
42.347330346696765
 20
45.859521947471904
 10
42.35725282663006
 20
45.21068411380155
 10
42.318080866766564
 20
44.55781197811267
 10
42.2330398223402
 20
43.90582797684793
 10
42.105355048584855
 20
43.25965454645005
 10
41.93825190073443
 20
42.624214123361696
 10
41.73495573402285
 20
42.00442914402558
 10
41.49869190368399
 20
41.40522204488438
 10
41.23268576495181
 20
40.8315152623808
 10
40.94016267306017
 20
40.288231232957514
 10
40.94016267306017
 20
40.288231232957514
  0
LWPOLYLINE
  5
94
330
17
100
AcDbEntity
  8
ETCH
100
AcDbPolyline
 90
124
 70
0
 10
32.123622687402985
 20
27.43549251883598
 10
31.98088823162891
 20
27.400345930648452
 10
31.83985654719342
 20
27.371322396288527
 10
31.700542333598428
 20
27.34839014586491
 10
31.562960290345917
 20
27.33151740948629
 10
31.427125116937813
 20
27.32067241726138
 10
31.293051512876072
 20
27.31582339929886
 10
31.16075417766265
 20
27.316938585707398
 10
31.030247810799484
 20
27.323986206595713
 10
30.90154711178853
 20
27.3369344920725
 10
30.77466678013172
 20
27.355751672246445
 10
30.649621515331024
 20
27.38040597722624
 10
30.526426016888376
 20
27.41086563712057
 10
30.405094984305727
 20
27.44709888203814
 10
30.28564311708503
 20
27.48907394208765
 10
30.168085114728232
 20
27.536759047377764
 10
30.052435676737275
 20
27.590122428017192
 10
29.93870950261411
 20
27.649132314114638
 10
29.82692129186069
 20
27.713756935778775
 10
29.717085743978956
 20
27.783964523118314
 10
29.609217558470853
 20
27.85972330624193
 10
29.627899542741666
 20
27.869429395281234
 10
29.64657977255579
 20
27.879199925040353
 10
29.665257441811505
 20
27.889032951391652
 10
29.68393174440711
 20
27.8989265302074
 10
29.70260187424086
 20
27.908878717359972
 10
29.72126702521105
 20
27.918887568721665
 10
29.73992639121596
 20
27.92895114016479
 10
29.758579166153872
 20
27.939067487561683
 10
29.777224543923055
 20
27.94923466678467
 10
29.795861718421794
 20
27.959450733706085
 10
29.814489883548372
 20
27.96971374419822
 10
29.833108233201074
 20
27.980021754133425
 10
29.851715961278167
 20
27.990372819384014
 10
29.870312261677945
 20
28.00076499582231
 10
29.888896328298678
 20
28.011196339320627
 10
29.90746735503865
 20
28.021664905751305
 10
29.926024535796145
 20
28.032168750986656
 10
29.944567064469442
 20
28.042705930899004
 10
29.963094134956815
 20
28.053274501360672
 10
29.981604941156554
 20
28.06387251824399
 10
30.114937010665713
 20
28.148246608332776
 10
30.239030206111746
 20
28.24124252532711
 10
30.35370244334147
 20
28.3422252033251
 10
30.458771638201743
 20
28.45055957642481
 10
30.554055706539376
 20
28.565610578724375
 10
30.639372564201224
 20
28.686743144321852
 10
30.714540127034123
 20
28.81332220731533
 10
30.779376310884906
 20
28.944712701802924
 10
30.83369903160041
 20
29.080279561882723
 10
30.87732620502746
 20
29.219387721652822
 10
30.91007574701291
 20
29.3614021152113
 10
30.931765573403585
 20
29.505687676656265
 10
30.942213600046323
 20
29.651609340085813
 10
30.94123774278796
 20
29.79853203959801
 10
30.928655917475332
 20
29.945820709290974
 10
30.90428603995528
 20
30.092840283262785
 10
30.86794602607463
 20
30.23895569561156
 10
30.819453791680232
 20
30.383531880435353
 10
30.75862725261891
 20
30.525933771832285
 10
30.68528432473751
 20
30.66552630390045
 10
28.340318616110583
 20
34.69603490257843
 10
29.64335833718907
 20
34.69603490257843
 10
29.657536267615644
 20
34.50800906847396
 10
29.676420077628794
 20
34.32357607715208
 10
29.700098106493442
 20
34.14318971646329
 10
29.728658693474546
 20
33.96730377425802
 10
29.762190177837006
 20
33.79637203838676
 10
29.80078089884577
 20
33.630848296699966
 10
29.844519195765784
 20
33.47118633704808
 10
29.893493407861964
 20
33.3178399472816
 10
29.94779187439925
 20
33.17126291525094
 10
30.007502934642574
 20
33.03190902880662
 10
30.07271492785687
 20
32.90023207579907
 10
30.14351619330707
 20
32.776685844078756
 10
30.219995070258108
 20
32.66172412149616
 10
30.302239897974925
 20
32.55580069590171
 10
30.39033901572244
 20
32.45936935514589
 10
30.4843807627656
 20
32.37288388707916
 10
30.58445347836933
 20
32.29679807955199
 10
30.690645501798567
 20
32.23156572041483
 10
30.803045172318242
 20
32.17764059751815
 10
30.92174082919329
 20
32.13547649871242
 10
31.13681672629749
 20
32.080337165342996
 10
31.3433065494783
 20
32.04468415560447
 10
31.541707568661288
 20
32.02799350337904
 10
31.73251705377206
 20
32.02974124254882
 10
31.916232274736164
 20
32.04940340699605
 10
32.09335050147919
 20
32.08645603060286
 10
32.264369003926745
 20
32.14037514725142
 10
32.42978505200439
 20
32.21063679082392
 10
32.590095915637704
 20
32.29671699520252
 10
32.745798864752246
 20
32.39809179426942
 10
32.89739116927364
 20
32.514237221906754
 10
33.04537009912744
 20
32.64462931199671
 10
33.190232924239226
 20
32.78874409842146
 10
33.33247691453459
 20
32.946057615063175
 10
33.47259933993911
 20
33.11604589580403
 10
33.611097470378354
 20
33.29818497452619
 10
33.748468575777906
 20
33.491950885111834
 10
33.88520992606337
 20
33.69681966144312
 10
34.0218187911603
 20
33.912267337402234
 10
34.158792440994276
 20
34.13776994687135
 10
34.24636185507643
 20
33.888268985842444
 10
34.33132077986585
 20
33.60168075463869
 10
34.410782754775134
 20
33.28268448407219
 10
34.48186131921693
 20
32.93595940495496
 10
34.54167001260384
 20
32.56618474809913
 10
34.587322374348474
 20
32.17803974431676
 10
34.61593194386349
 20
31.776203624419885
 10
34.62461226056146
 20
31.365355619220615
 10
34.61047686385505
 20
30.950174959531008
 10
34.57063929315683
 20
30.535340876163147
 10
34.50221308787947
 20
30.125532599929087
 10
34.40231178743555
 20
29.725429361640913
 10
34.26804893123771
 20
29.3397103921107
 10
34.096538058698556
 20
28.97305492215051
 10
33.884892709230726
 20
28.63014218257242
 10
33.630226422246835
 20
28.315651404188493
 10
33.32965273715949
 20
28.034261817810822
 10
32.98028519338133
 20
27.790652654251453
 10
32.57923733032495
 20
27.589503144322485
 10
32.123622687402985
 20
27.43549251883598
 10
32.123622687402985
 20
27.43549251883598
  0
LWPOLYLINE
  5
95
330
17
100
AcDbEntity
  8
ETCH
100
AcDbPolyline
 90
124
 70
0
 10
20.018819921867497
 20
28.06387251824399
 10
20.037691711481468
 20
28.052913510043474
 10
20.056560656030552
 20
28.042020080588756
 10
20.075423910449842
 20
28.031193320488036
 10
20.094278629674466
 20
28.020434320349494
 10
20.113121968639504
 20
28.009744170781403
 10
20.13195108228008
 20
27.999123962391923
 10
20.1507631255313
 20
27.988574785789275
 10
20.16955525332827
 20
27.97809773158167
 10
20.18832462060609
 20
27.967693890377298
 10
20.207068382299866
 20
27.957364352784417
 10
20.225783693344717
 20
27.94711020941119
 10
20.244467708675742
 20
27.936932550865844
 10
20.263117583228045
 20
27.92683246775659
 10
20.28173047193674
 20
27.91681105069162
 10
20.300303529736933
 20
27.90686939027917
 10
20.318833911563726
 20
27.89700857712742
 10
20.337318772352226
 20
27.887229701844607
 10
20.355755267037544
 20
27.87753385503892
 10
20.374140550554785
 20
27.86792212731857
 10
20.392471777839056
 20
27.85839560929178
 10
20.284693844111732
 20
27.782731590537985
 10
20.1749400128161
 20
27.71261834080853
 10
20.063225931809058
 20
27.64808720323501
 10
19.94956724894753
 20
27.589169520948975
 10
19.833979612088417
 20
27.535896637082026
 10
19.716478669088637
 20
27.488299894765717
 10
19.59708006780511
 20
27.446410637131606
 10
19.475799456094737
 20
27.410260207311303
 10
19.352652481814438
 20
27.379879948436358
 10
19.227654792821117
 20
27.35530120363836
 10
19.100822036971692
 20
27.33655531604887
 10
18.97216986212308
 20
27.323673628799455
 10
18.841713916132186
 20
27.31668748502171
 10
18.709469846855924
 20
27.315628227847185
 10
18.575453302151217
 20
27.32052720040747
 10
18.43967992987496
 20
27.331415745834118
 10
18.302165377884076
 20
27.348325207258736
 10
18.162925294035478
 20
27.37128692781286
 10
18.021975326186073
 20
27.40033225062809
 10
17.87933112219278
 20
27.435492518835986
 10
17.423611946844865
 20
27.589617745116993
 10
17.02242413030462
 20
27.79109528312518
 10
16.67288562183525
 20
28.035222240592148
 10
16.37211437069995
 20
28.31729572524942
 10
16.11722832616193
 20
28.63261284482862
 10
15.905345437484389
 20
28.97647070706128
 10
15.73358365393054
 20
29.34416641967895
 10
15.599060924763581
 20
29.730997090413215
 10
15.498895199246721
 20
30.132259826995643
 10
15.430204426643154
 20
30.54325173715781
 10
15.390106556216097
 20
30.959269928631258
 10
15.375719537228743
 20
31.375611509147568
 10
15.384161318944303
 20
31.787573586438306
 10
15.412549850625979
 20
32.19045326823503
 10
15.45800308153698
 20
32.57954766226932
 10
15.5176389609405
 20
32.95015387627272
 10
15.588575438099749
 20
33.29756901797682
 10
15.667930462277933
 20
33.617090195113164
 10
15.752821982738254
 20
33.90401451541334
 10
15.840367948743914
 20
34.15363908660889
 10
15.977255480044171
 20
33.92802188424825
 10
16.113794490895017
 20
33.71224623553061
 10
16.250480496765334
 20
33.506859815447925
 10
16.38780901312404
 20
33.312410298992106
 10
16.526275555440016
 20
33.12944536115512
 10
16.666375639182156
 20
32.958512676928905
 10
16.80860477981937
 20
32.800159921305365
 10
16.95345849282055
 20
32.65493476927647
 10
17.10143229365458
 20
32.52338489583414
 10
17.253021697790366
 20
32.40605797597034
 10
17.40872222069681
 20
32.303501684676974
 10
17.569029377842796
 20
32.216263696946
 10
17.734438684697224
 20
32.14489168776936
 10
17.905445656729
 20
32.08993333213897
 10
18.08254580940701
 20
32.051936305046794
 10
18.26623465820015
 20
32.031448281484735
 10
18.45700771857732
 20
32.029016936444776
 10
18.65536050600742
 20
32.04518994491882
 10
18.861788535959334
 20
32.08051498189882
 10
19.076787323901975
 20
32.13553972237671
 10
19.195564594624663
 20
32.17770382118246
 10
19.30803862407651
 20
32.23162894407913
 10
19.414298083446667
 20
32.29686130321629
 10
19.514431643924325
 20
32.372947110743446
 10
19.60852797669864
 20
32.45943257881018
 10
19.696675752958786
 20
32.55586391956601
 10
19.778963643893945
 20
32.66178734516045
 10
19.855480320693275
 20
32.776749067743054
 10
19.926314454545953
 20
32.90029529946336
 10
19.99155471664114
 20
33.03197225247092
 10
20.051289778168027
 20
33.17132613891525
 10
20.105608310315766
 20
33.31790317094588
 10
20.154598984273534
 20
33.47124956071238
 10
20.198350471230505
 20
33.63091152036425
 10
20.236951442375847
 20
33.79643526205106
 10
20.270490568898737
 20
33.96736699792232
 10
20.299056521988334
 20
34.14325294012759
 10
20.322737972833817
 20
34.32363930081638
 10
20.34162359262436
 20
34.50807229213825
 10
20.355802052549123
 20
34.69609812624273
 10
21.660738483556393
 20
34.69609812624273
 10
19.31514053828654
 20
30.665589527564748
 10
19.241797610405136
 20
30.525987978221476
 10
19.18097107134382
 20
30.383577970486627
 10
19.132478836949417
 20
30.238994522844397
 10
19.096138823068774
 20
30.092872653778898
 10
19.07176894554872
 20
29.94584738177435
 10
19.05918712023609
 20
29.79855372531487
 10
19.05821126297773
 20
29.65162670288461
 10
19.06865928962047
 20
29.505701332967757
 10
19.09034911601114
 20
29.36141263404845
 10
19.123098657996586
 20
29.21939562461086
 10
19.16672583142364
 20
29.080285323139133
 10
19.221048552139145
 20
28.944716748117443
 10
19.285884735989924
 20
28.81332491802994
 10
19.36105229882282
 20
28.686744851360782
 10
19.44636915648467
 20
28.56561156659412
 10
19.541653224822312
 20
28.450560082214135
 10
19.646722419682575
 20
28.34222541670497
 10
19.76139465691231
 20
28.241242588550783
 10
19.885487852358334
 20
28.14824661623574
 10
20.018819921867497
 20
28.06387251824399
 10
20.018819921867497
 20
28.06387251824399
  0
LWPOLYLINE
  5
96
330
17
100
AcDbEntity
  8
ETCH
100
AcDbPolyline
 90
82
 70
0
 10
27.67394119446249
 20
27.09465374463248
 10
27.619922026365174
 20
26.900640866608203
 10
27.552355133424005
 20
26.706220195949218
 10
27.472145720452474
 20
26.511856426588125
 10
27.380198992264127
 20
26.318014252457402
 10
27.27742015367245
 20
26.125158367489693
 10
27.164714409490973
 20
25.933753465617507
 10
27.042986964533213
 20
25.74426424077338
 10
26.913143023612676
 20
25.55715538688988
 10
26.776087791542885
 20
25.372891597899564
 10
26.632726473137343
 20
25.191937567735003
 10
26.483964273209576
 20
25.01475799032873
 10
26.3307063965731
 20
24.84181755961329
 10
26.173858048041417
 20
24.673580969521264
 10
26.014324432428054
 20
24.510512913985185
 10
25.85301075454652
 20
24.353078086937607
 10
25.690822219210336
 20
24.201741182311086
 10
25.528664031233006
 20
24.056966894038183
 10
25.36744139542806
 20
23.919219916051436
 10
25.208059516608998
 20
23.78896494228342
 10
25.051423599589345
 20
23.666666666666668
 10
24.89446690150298
 20
23.788146361792947
 10
24.734869034840784
 20
23.91746994824747
 10
24.573516711494445
 20
24.054183211420074
 10
24.4112966433557
 20
24.19783193670051
 10
24.249095542316233
 20
24.34796190947864
 10
24.08780012026776
 20
24.50411891514425
 10
23.928297089102003
 20
24.665848739087107
 10
23.771473160710663
 20
24.832697166697038
 10
23.61821504698544
 20
25.004209983363864
 10
23.46940945981805
 20
25.179932974477378
 10
23.32594311110021
 20
25.35941192542736
 10
23.188702712723618
 20
25.542192621603636
 10
23.05857497657998
 20
25.72782084839601
 10
22.93644661456102
 20
25.915842391194285
 10
22.823204338558437
 20
26.105803035388245
 10
22.719734860463944
 20
26.297248566367706
 10
22.62692489216925
 20
26.489724769522482
 10
22.54566114556606
 20
26.68277743024236
 10
22.47683033254609
 20
26.875952333917148
 10
22.42131916500104
 20
27.06879526593665
 10
22.547817783784673
 20
27.035860138787626
 10
22.67466207795283
 20
27.004597767542556
 10
22.80183734800356
 20
26.975009906658123
 10
22.929328894434917
 20
26.947098310590988
 10
23.057122017744945
 20
26.920864733797863
 10
23.18520201843171
 20
26.896310930735435
 10
23.313554196993252
 20
26.87343865586035
 10
23.44216385392763
 20
26.852249663629337
 10
23.571016289732896
 20
26.832745708499047
 10
23.70009680490709
 20
26.814928544926197
 10
23.829390699948277
 20
26.798799927367433
 10
23.95888327535451
 20
26.784361610279458
 10
24.08855983162383
 20
26.771615348118974
 10
24.21840566925429
 20
26.760562895342638
 10
24.348406088743957
 20
26.75120600640714
 10
24.478546390590868
 20
26.74354643576917
 10
24.608811875293075
 20
26.737585937885413
 10
24.73918784334864
 20
26.733326267212547
 10
24.8696595952556
 20
26.73076917820726
 10
25.000212431512022
 20
26.729916425326234
 10
25.135962015884584
 20
26.730835926590842
 10
25.271591159176676
 20
26.733592818181204
 10
25.407083739353883
 20
26.738184681792184
 10
25.542423634381837
 20
26.744609099118602
 10
25.67759472222611
 20
26.75286365185532
 10
25.812580880852337
 20
26.762945921697177
 10
25.947365988226117
 20
26.774853490338987
 10
26.08193392231305
 20
26.788583939475608
 10
26.216268561078735
 20
26.804134850801884
 10
26.350353782488785
 20
26.821503806012668
 10
26.484173464508803
 20
26.840688386802768
 10
26.6177114851044
 20
26.861686174867046
 10
26.750951722241176
 20
26.88449475190035
 10
26.883878053884736
 20
26.909111699597503
 10
27.016474358000686
 20
26.93553459965335
 10
27.14872451255464
 20
26.96376103376274
 10
27.280612395512183
 20
26.99378858362051
 10
27.412121884838943
 20
27.025614830921487
 10
27.543236858500503
 20
27.059237357360534
 10
27.67394119446249
 20
27.09465374463248
 10
27.67394119446249
 20
27.09465374463248
  0
LWPOLYLINE
  5
97
330
17
100
AcDbEntity
  8
ETCH
100
AcDbPolyline
 90
82
 70
0
 10
25.000212431512022
 20
35.075440112000656
 10
24.867988917829614
 20
35.08078463752913
 10
24.73870867119696
 20
35.09654157897142
 10
24.612786644328715
 20
35.12229598361287
 10
24.490637789939573
 20
35.1576328987388
 10
24.372677060744177
 20
35.20213737163454
 10
24.259319409457216
 20
35.25539444958543
 10
24.150979788793364
 20
35.31698917987678
 10
24.04807315146728
 20
35.386506609793926
 10
23.95101445019365
 20
35.4635317866222
 10
23.860218637687122
 20
35.547649757646944
 10
23.77610066666238
 20
35.638445570153465
 10
23.6990754898341
 20
35.73550427142711
 10
23.62955805991695
 20
35.83841090875319
 10
23.567963329625595
 20
35.946750529417045
 10
23.51470625167471
 20
36.060108180704006
 10
23.47020177877897
 20
36.178068909899395
 10
23.43486486365304
 20
36.30021776428855
 10
23.409110459011593
 20
36.426139791156785
 10
23.393353517569295
 20
36.555420037789446
 10
23.388008992040827
 20
36.68764355147185
 10
23.393353517569295
 20
36.819867065154256
 10
23.409110459011593
 20
36.949147311786916
 10
23.434864863653036
 20
37.075069338655155
 10
23.470201778778975
 20
37.1972181930443
 10
23.51470625167471
 20
37.315178922239696
 10
23.56796332962559
 20
37.42853657352666
 10
23.62955805991695
 20
37.53687619419051
 10
23.6990754898341
 20
37.639782831516584
 10
23.776100666662387
 20
37.73684153279022
 10
23.860218637687122
 20
37.82763734529676
 10
23.951014450193647
 20
37.91175531632149
 10
24.04807315146728
 20
37.988780493149775
 10
24.15097978879336
 20
38.058297923066924
 10
24.25931940945722
 20
38.11989265335828
 10
24.372677060744177
 20
38.17314973130917
 10
24.49063778993957
 20
38.217654204204905
 10
24.612786644328715
 20
38.25299111933084
 10
24.73870867119696
 20
38.27874552397228
 10
24.867988917829617
 20
38.294502465414574
 10
25.000212431512022
 20
38.299846990943045
 10
25.13244450409798
 20
38.294502465414574
 10
25.261731555177512
 20
38.278745523972276
 10
25.387658774289175
 20
38.252991119330844
 10
25.50981135097157
 20
38.2176542042049
 10
25.627774474763243
 20
38.17314973130917
 10
25.741133335202775
 20
38.11989265335828
 10
25.849473121828755
 20
38.058297923066924
 10
25.95237902417974
 20
37.98878049314977
 10
26.04943623179431
 20
37.91175531632149
 10
26.140229934211035
 20
37.82763734529675
 10
26.2243453209685
 20
37.73684153279024
 10
26.301367581605263
 20
37.63978283151659
 10
26.370881905659903
 20
37.53687619419051
 10
26.432473482671
 20
37.42853657352666
 10
26.485727502177127
 20
37.315178922239696
 10
26.53022915371685
 20
37.19721819304431
 10
26.565563626828745
 20
37.075069338655155
 10
26.59131611105139
 20
36.949147311786916
 10
26.607071795923357
 20
36.819867065154256
 10
26.61241587098322
 20
36.68764355147185
 10
26.607071795923357
 20
36.555420037789446
 10
26.591316111051395
 20
36.42613979115678
 10
26.56556362682874
 20
36.30021776428855
 10
26.530229153716853
 20
36.178068909899395
 10
26.485727502177127
 20
36.060108180704006
 10
26.432473482671
 20
35.94675052941705
 10
26.370881905659907
 20
35.83841090875319
 10
26.301367581605263
 20
35.73550427142711
 10
26.2243453209685
 20
35.638445570153465
 10
26.14022993421104
 20
35.54764975764695
 10
26.04943623179431
 20
35.46353178662221
 10
25.95237902417974
 20
35.386506609793926
 10
25.849473121828755
 20
35.31698917987678
 10
25.74113333520278
 20
35.255394449585424
 10
25.627774474763243
 20
35.20213737163454
 10
25.509811350971567
 20
35.1576328987388
 10
25.38765877428918
 20
35.122295983612865
 10
25.261731555177512
 20
35.09654157897142
 10
25.132444504097982
 20
35.08078463752913
 10
25.000212431512022
 20
35.075440112000656
 10
25.000212431512022
 20
35.075440112000656
  0
LWPOLYLINE
  5
98
330
17
100
AcDbEntity
  8
ETCH
100
AcDbPolyline
 90
84
 70
0
 10
26.61304810762615
 20
33.89505429965057
 10
26.541348125690977
 20
33.85477798043105
 10
26.468521972235596
 20
33.81628646525451
 10
26.394600468796327
 20
33.779610101479825
 10
26.319614436909536
 20
33.744779236465845
 10
26.243594698111547
 20
33.711824217571454
 10
26.166572073938706
 20
33.680775392155496
 10
26.088577385927373
 20
33.651663107576816
 10
26.00964145561387
 20
33.6245177111943
 10
25.929795104534552
 20
33.599369550366795
 10
25.849069154225752
 20
33.57624897245318
 10
25.767494426223823
 20
33.55518632481228
 10
25.685101742065104
 20
33.536211954803
 10
25.601921923285936
 20
33.51935620978417
 10
25.51798579142266
 20
33.50464943711466
 10
25.43332416801163
 20
33.49212198415332
 10
25.347967874589177
 20
33.48180419825902
 10
25.26194773269164
 20
33.473726426790634
 10
25.17529456385538
 20
33.467919017107
 10
25.088039189616726
 20
33.46441231656699
 10
25.000212431512022
 20
33.46323667252946
 10
24.91239025712298
 20
33.46440781188091
 10
24.82514800179467
 20
33.46790194671764
 10
24.73851553870846
 20
33.47369015221325
 10
24.652522741045743
 20
33.481743503541296
 10
24.567199481987878
 20
33.49203307587541
 10
24.48257563471625
 20
33.50452994438915
 10
24.398681072412256
 20
33.51920518425609
 10
24.315545668257254
 20
33.536029870649834
 10
24.233199295432634
 20
33.55497507874396
 10
24.15167182711976
 20
33.57601188371208
 10
24.07099313650002
 20
33.59911136072774
 10
23.9911930967548
 20
33.62424458496456
 10
23.91230158106546
 20
33.65138263159609
 10
23.83434846261339
 20
33.68049657579596
 10
23.757363614579976
 20
33.71155749273772
 10
23.681376910146582
 20
33.74453645759496
 10
23.606418222494586
 20
33.77940454554129
 10
23.532517424805384
 20
33.816132831750274
 10
23.459704390260335
 20
33.8546923913955
 10
23.388008992040827
 20
33.89505429965057
 10
20.984877512264354
 20
29.733040479243165
 10
21.163445165220182
 20
29.632726415203955
 10
21.34479339493162
 20
29.536868196964953
 10
21.528848229711436
 20
29.44554027039087
 10
21.71553569787242
 20
29.35881708134639
 10
21.904781827727327
 20
29.27677307569626
 10
22.096512647588956
 20
29.199482699305143
 10
22.29065418577008
 20
29.127020398037757
 10
22.48713247058347
 20
29.059460617758816
 10
22.68587353034191
 20
28.996877804333007
 10
22.886803393358164
 20
28.939346403625073
 10
23.08984808794503
 20
28.88694086149967
 10
23.294933642415266
 20
28.839735623821536
 10
23.501986085081654
 20
28.797805136455366
 10
23.71093144425698
 20
28.76122384526586
 10
23.92169574825401
 20
28.73006619611773
 10
24.134205025385537
 20
28.704406634875678
 10
24.348385303964317
 20
28.684319607404415
 10
24.564162612303143
 20
28.669879559568635
 10
24.781462978714785
 20
28.661160937233056
 10
25.000212431512022
 20
28.65823818626237
 10
25.21896188430926
 20
28.661160937233063
 10
25.4362622507209
 20
28.669879559568642
 10
25.652039559059727
 20
28.684319607404426
 10
25.86621983763852
 20
28.70440663487567
 10
26.07872911477003
 20
28.73006619611773
 10
26.289493418767062
 20
28.76122384526586
 10
26.49843877794239
 20
28.797805136455366
 10
26.70549122060878
 20
28.839735623821536
 10
26.910576775079026
 20
28.886940861499664
 10
27.113621469665883
 20
28.939346403625073
 10
27.314551332682143
 20
28.996877804333014
 10
27.513292392440576
 20
29.059460617758816
 10
27.709770677253967
 20
29.127020398037757
 10
27.90391221543509
 20
29.199482699305136
 10
28.09564303529672
 20
29.27677307569625
 10
28.284889165151636
 20
29.35881708134639
 10
28.47157663331261
 20
29.44554027039087
 10
28.655631468092427
 20
29.53686819696496
 10
28.836979697803862
 20
29.632726415203955
 10
29.015547350759693
 20
29.733040479243165
 10
26.61304810762615
 20
33.89505429965057
 10
26.61304810762615
 20
33.89505429965057
  0
LWPOLYLINE
  5
99
330
17
100
AcDbEntity
  8
ETCH
100
AcDbPolyline
 90
44
 70
0
 10
29.015547350759693
 20
43.62644070762729
 10
26.61241587098322
 20
39.45652392918326
 10
26.754542036077215
 20
39.36937532390769
 10
26.89169502773792
 20
39.275192769861185
 10
27.023624480254743
 20
39.17422094262459
 10
27.150080027917085
 20
39.06670451777869
 10
27.270811305014323
 20
38.95288817090434
 10
27.385567945835877
 20
38.83301657758232
 10
27.494099584671154
 20
38.70733441339344
 10
27.59615585580954
 20
38.57608635391854
 10
27.691486393540437
 20
38.43951707473841
 10
27.779840832153244
 20
38.29787125143389
 10
27.860968805937365
 20
38.15139355958577
 10
27.934619949182196
 20
38.00032867477488
 10
28.000543896177135
 20
37.84492127258201
 10
28.058490281211583
 20
37.685416028588
 10
28.108208738574948
 20
37.52205761837365
 10
28.149448902556625
 20
37.35509071751978
 10
28.181960407446006
 20
37.1847600016072
 10
28.2054928875325
 20
37.01131014621673
 10
28.219795977105502
 20
36.83498582692918
 10
28.224619310454415
 20
36.656031719325355
 10
33.02961779672151
 20
36.656031719325355
 10
33.01761557435128
 20
37.098943360879126
 10
32.98202302224175
 20
37.53579406585543
 10
32.92346131289456
 20
37.965938004523544
 10
32.84255161881143
 20
38.38872934715269
 10
32.739915112493975
 20
38.80352226401215
 10
32.61617296644393
 20
39.20967092537116
 10
32.47194635316297
 20
39.60652950149893
 10
32.30785644515276
 20
39.99345216266475
 10
32.12452441491497
 20
40.36979307913785
 10
31.922571434951287
 20
40.734906421187475
 10
31.702618677763393
 20
41.088146359082884
 10
31.46528731585296
 20
41.42886706309332
 10
31.211198521721673
 20
41.75642270348803
 10
30.94097346787121
 20
42.070167450536246
 10
30.65523332680325
 20
42.369455474507234
 10
30.354599271019467
 20
42.653640945670226
 10
30.039692473021535
 20
42.922078034294486
 10
29.71113410531115
 20
43.17412091064925
 10
29.369545340389973
 20
43.40912374500377
 10
29.015547350759693
 20
43.62644070762729
 10
29.015547350759693
 20
43.62644070762729
  0
LWPOLYLINE
  5
9A
330
17
100
AcDbEntity
  8
ETCH
100
AcDbPolyline
 90
44
 70
0
 10
20.985509748907283
 20
43.62644070762729
 10
20.63150717556134
 20
43.4096598026474
 10
20.289905291729827
 20
43.175981583089396
 10
19.961326218269377
 20
42.92591104797184
 10
19.646392076036648
 20
42.65995319631324
 10
19.345724985888268
 20
42.37861302713216
 10
19.05994706868089
 20
42.08239553944716
 10
18.789680445271156
 20
41.77180573227673
 10
18.535547236515704
 20
41.447348604639444
 10
18.29816956327118
 20
41.10952915555383
 10
18.07816954639423
 20
40.75885238403845
 10
17.876169306741488
 20
40.39582328911182
 10
17.692790965169603
 20
40.02094686979248
 10
17.528656642535218
 20
39.63472812509899
 10
17.384388459694982
 20
39.237672054049874
 10
17.260608537505526
 20
38.83028365566367
 10
17.1579389968235
 20
38.41306792895893
 10
17.07700195850554
 20
37.986529872954186
 10
17.018419543408307
 20
37.55117448666798
 10
16.982813872388423
 20
37.10750676911886
 10
16.97080706630254
 20
36.656031719325355
 10
21.775805552569633
 20
36.656031719325355
 10
21.78062888591854
 20
36.83498590595876
 10
21.79493197549155
 20
37.01131077845337
 10
21.818464455578038
 20
37.184762135405876
 10
21.85097596046743
 20
37.35509577541292
 10
21.892216124449096
 20
37.5220674970712
 10
21.941934581812458
 20
37.68543309897737
 10
21.999880966846913
 20
37.84494837972807
 10
22.065804913841852
 20
38.000369137920025
 10
22.139456057086687
 20
38.151451172149855
 10
22.220584030870803
 20
38.29795028101426
 10
22.308938469483614
 20
38.43962226310988
 10
22.40426900721451
 20
38.57622291703341
 10
22.50632527835289
 20
38.707508041381516
 10
22.614856917188163
 20
38.83323343475084
 10
22.729613558009724
 20
38.95315489573807
 10
22.850344835106974
 20
39.06702822293988
 10
22.976800382769305
 20
39.17460921495293
 10
23.108729835286127
 20
39.275653670373885
 10
23.245882826946833
 20
39.36991738779941
 10
23.388008992040827
 20
39.45715616582619
 10
20.985509748907283
 20
43.62644070762729
 10
20.985509748907283
 20
43.62644070762729
  0
LWPOLYLINE
  5
9B
330
17
100
AcDbEntity
  8
ETCH
100
AcDbPolyline
 90
86
 70
0
 10
25.043899983538477
 20
64.25
 10
25.424488194652152
 20
63.6964497909984
 10
25.81915430845255
 20
63.11567136261405
 10
26.224223022692872
 20
62.51090714047025
 10
26.63601903512639
 20
61.88539955019023
 10
27.050867043506315
 20
61.24239101739728
 10
27.465091745585887
 20
60.58512396771464
 10
27.87501783911836
 20
59.91684082676559
 10
28.276970021856954
 20
59.24078402017341
 10
28.667272991554903
 20
58.560195973561335
 10
29.042251445965444
 20
57.878319112552646
 10
29.39823008284182
 20
57.198395862770624
 10
29.73153359993727
 20
56.52366864983851
 10
30.038486695005016
 20
55.857379899379595
 10
30.315414065798304
 20
55.20277203701713
 10
30.55864041007037
 20
54.563087488374364
 10
30.76449042557445
 20
53.94156867907459
 10
30.929288810063774
 20
53.34145803474107
 10
31.04936026129159
 20
52.76599798099706
 10
31.121029477011117
 20
52.21843094346583
 10
31.140621154975605
 20
51.70199934777065
 10
31.13585639835166
 20
51.625189787346486
 10
31.12416542608076
 20
51.54034339277655
 10
31.10632361318177
 20
51.44875514276474
 10
31.083106334673623
 20
51.35172001601492
 10
31.055288965575166
 20
51.25053299123098
 10
31.0236468809053
 20
51.146489047116816
 10
30.98895545568293
 20
51.04088316237628
 10
30.951990064926935
 20
50.93501031571327
 10
30.913526083656205
 20
50.83016548583166
 10
30.874338886889618
 20
50.72764365143534
 10
30.835203849646078
 20
50.628739791228185
 10
30.79689634694446
 20
50.53474888391408
 10
30.76019175380367
 20
50.4469659081969
 10
30.72586544524259
 20
50.36668584278053
 10
30.69469279628011
 20
50.29520366636885
 10
30.66744918193511
 20
50.233814357665736
 10
30.644909977226494
 20
50.183812895375084
 10
30.627850557173144
 20
50.14649425820076
 10
30.617046296793944
 20
50.12315342484666
 10
30.613272571107792
 20
50.11508537401665
 10
27.436978900692367
 20
44.61336210724083
 10
25.043899983538477
 20
40.54428707334412
 10
22.650821066384587
 20
44.61336210724083
 10
19.474464172304863
 20
50.11508537401665
 10
19.470690904990278
 20
50.12315342484666
 10
19.459887956502115
 20
50.14649425820076
 10
19.442830607023772
 20
50.18381289537509
 10
19.420294136738637
 20
50.233814357665736
 10
19.393053825830094
 20
50.29520366636885
 10
19.361884954481553
 20
50.36668584278053
 10
19.327562802876404
 20
50.4469659081969
 10
19.29086265119803
 20
50.53474888391408
 10
19.252559779629827
 20
50.628739791228185
 10
19.21342946835519
 20
50.72764365143534
 10
19.174246997557518
 20
50.83016548583166
 10
19.135787647420187
 20
50.93501031571327
 10
19.098826698126604
 20
51.04088316237628
 10
19.06413942986016
 20
51.146489047116816
 10
19.03250112280424
 20
51.25053299123098
 10
19.00468705714225
 20
51.35172001601492
 10
18.981472513057568
 20
51.44875514276474
 10
18.963632770733597
 20
51.54034339277655
 10
18.951943110353724
 20
51.625189787346486
 10
18.947178812101345
 20
51.70199934777065
 10
18.96676193116228
 20
52.21843094346583
 10
19.038424342434944
 20
52.76599798099706
 10
19.158490601419324
 20
53.34145803474107
 10
19.323285263615418
 20
53.94156867907459
 10
19.529132884523207
 20
54.56308748837437
 10
19.772358019642695
 20
55.20277203701713
 10
20.049285224473866
 20
55.857379899379595
 10
20.356239054516713
 20
56.52366864983853
 10
20.689544065271228
 20
57.198395862770624
 10
21.045524812237403
 20
57.878319112552646
 10
21.420505850915227
 20
58.560195973561335
 10
21.810811736804688
 20
59.24078402017341
 10
22.212767025405785
 20
59.91684082676559
 10
22.62269627221851
 20
60.58512396771464
 10
23.036924032742846
 20
61.24239101739728
 10
23.451774862478793
 20
61.88539955019023
 10
23.863573316926335
 20
62.51090714047025
 10
24.26864395158547
 20
63.11567136261405
 10
24.663311321956186
 20
63.6964497909984
 10
25.043899983538477
 20
64.25
 10
25.043899983538477
 20
64.25
  0
TEXT
  5
9C
330
17
100
AcDbEntity
  8
ETCH
100
AcDbText
 10
25.0
 20
15.0
 30
0.0
 40
7.666666666666667
  1
Jonathan
  7
Ubuntu
 72
1
 11
25.0
 21
15.0
 31
0.0
100
AcDbText
 73
1
  0
TEXT
  5
9D
330
17
100
AcDbEntity
  8
ETCH
100
AcDbText
 10
47.0
 20
13.0
 30
0.0
 40
3.5
  1
he/him
  7
Ubuntu
 72
2
 11
47.0
 21
13.0
 31
0.0
100
AcDbText
 73
3
  0
TEXT
  5
9E
330
17
100
AcDbEntity
  8
ETCH
100
AcDbText
 10
25.0
 20
3.25
 30
0.0
 40
2.5
  1
https://example.com
  7
UbuntuBold
 72
1
 11
25.0
 21
3.25
 31
0.0
100
AcDbText
  0
ENDSEC
  0
SECTION
  2
OBJECTS
  0
DICTIONARY
  5
A
330
0
100
AcDbDictionary
281
1
  3
ACAD_COLOR
350
B
  3
ACAD_GROUP
350
C
  3
ACAD_LAYOUT
350
D
  3
ACAD_MATERIAL
350
E
  3
ACAD_MLEADERSTYLE
350
F
  3
ACAD_MLINESTYLE
350
10
  3
ACAD_PLOTSETTINGS
350
11
  3
ACAD_PLOTSTYLENAME
350
12
  3
ACAD_SCALELIST
350
14
  3
ACAD_TABLESTYLE
350
15
  3
ACAD_VISUALSTYLE
350
16
  3
EZDXF_META
350
2D
  0
DICTIONARY
  5
B
330
A
100
AcDbDictionary
281
1
  0
DICTIONARY
  5
C
330
A
100
AcDbDictionary
281
1
  0
DICTIONARY
  5
D
330
A
100
AcDbDictionary
281
1
  3
Model
350
1A
  3
Layout1
350
1E
  0
DICTIONARY
  5
E
330
A
100
AcDbDictionary
281
1
  3
ByBlock
350
1F
  3
ByLayer
350
20
  3
Global
350
21
  0
DICTIONARY
  5
F
330
A
100
AcDbDictionary
281
1
  3
Standard
350
2C
  0
DICTIONARY
  5
10
330
A
100
AcDbDictionary
281
1
  3
Standard
350
22
  0
DICTIONARY
  5
11
330
A
100
AcDbDictionary
281
1
  0
ACDBDICTIONARYWDFLT
  5
12
330
A
100
AcDbDictionary
281
1
  3
Normal
350
13
100
AcDbDictionaryWithDefault
340
13
  0
ACDBPLACEHOLDER
  5
13
330
12
  0
DICTIONARY
  5
14
330
A
100
AcDbDictionary
281
1
  0
DICTIONARY
  5
15
330
A
100
AcDbDictionary
281
1
  0
DICTIONARY
  5
16
330
A
100
AcDbDictionary
281
1
  3
2dWireframe
350
5A
  3
Basic
350
5B
  3
Brighten
350
5C
  3
ColorChange
350
5D
  3
Conceptual
350
5E
  3
Dim
350
5F
  3
EdgeColorOff
350
60
  3
Facepattern
350
61
  3
Flat
350
62
  3
FlatWithEdges
350
63
  3
Gouraud
350
64
  3
GouraudWithEdges
350
65
  3
Hidden
350
66
  3
JitterOff
350
67
  3
Linepattern
350
68
  3
Modeling
350
69
  3
OverhangOff
350
6A
  3
Realistic
350
6B
  3
Shaded
350
6C
  3
Shaded with edges
350
6D
  3
Shades of Gray
350
6E
  3
Sketchy
350
6F
  3
Thicken
350
70
  3
Wireframe
350
71
  3
X-Ray
350
72
  0
LAYOUT
  5
1A
330
D
100
AcDbPlotSettings
  1

  4
A3
  6

 40
7.5
 41
20.0
 42
7.5
 43
20.0
 44
420.0
 45
297.0
 46
0.0
 47
0.0
 48
0.0
 49
0.0
140
0.0
141
0.0
142
1.0
143
1.0
 70
1024
 72
1
 73
0
 74
5
  7

 75
16
 76
0
 77
2
 78
300
147
1.0
148
0.0
149
0.0
100
AcDbLayout
  1
Model
 70
1
 71
0
 10
0.0
 20
0.0
 11
420.0
 21
297.0
 12
0.0
 22
0.0
 32
0.0
 14
1e+20
 24
1e+20
 34
1e+20
 15
-1e+20
 25
-1e+20
 35
-1e+20
146
0.0
 13
0.0
 23
0.0
 33
0.0
 16
1.0
 26
0.0
 36
0.0
 17
0.0
 27
1.0
 37
0.0
 76
1
330
17
  0
LAYOUT
  5
1E
330
D
100
AcDbPlotSettings
  1

  4
A3
  6

 40
7.5
 41
20.0
 42
7.5
 43
20.0
 44
420.0
 45
297.0
 46
0.0
 47
0.0
 48
0.0
 49
0.0
140
0.0
141
0.0
142
1.0
143
1.0
 70
0
 72
1
 73
0
 74
5
  7

 75
16
 76
0
 77
2
 78
300
147
1.0
148
0.0
149
0.0
100
AcDbLayout
  1
Layout1
 70
1
 71
1
 10
0.0
 20
0.0
 11
420.0
 21
297.0
 12
0.0
 22
0.0
 32
0.0
 14
1e+20
 24
1e+20
 34
1e+20
 15
-1e+20
 25
-1e+20
 35
-1e+20
146
0.0
 13
0.0
 23
0.0
 33
0.0
 16
1.0
 26
0.0
 36
0.0
 17
0.0
 27
1.0
 37
0.0
 76
1
330
1B
  0
MATERIAL
  5
1F
102
{ACAD_REACTORS
330
E
102
}
330
E
100
AcDbMaterial
  1
ByBlock
  2

 70
0
 40
1.0
 71
1
 41
1.0
 91
-1023410177
 42
1.0
 72
1
  3

 73
1
 74
1
 75
1
 44
0.5
 73
0
 45
1.0
 46
1.0
 77
1
  4

 78
1
 79
1
170
1
 48
1.0
171
1
  6

172
1
173
1
174
1
140
1.0
141
1.0
175
1
  7

176
1
177
1
178
1
143
1.0
179
1
  8

270
1
271
1
272
1
145
1.0
146
1.0
273
1
  9

274
1
275
1
276
1
 42
1.0
 72
1
  3

 73
1
 74
1
 75
1
 94
63
  0
MATERIAL
  5
20
102
{ACAD_REACTORS
330
E
102
}
330
E
100
AcDbMaterial
  1
ByLayer
  2

 70
0
 40
1.0
 71
1
 41
1.0
 91
-1023410177
 42
1.0
 72
1
  3

 73
1
 74
1
 75
1
 44
0.5
 73
0
 45
1.0
 46
1.0
 77
1
  4

 78
1
 79
1
170
1
 48
1.0
171
1
  6

172
1
173
1
174
1
140
1.0
141
1.0
175
1
  7

176
1
177
1
178
1
143
1.0
179
1
  8

270
1
271
1
272
1
145
1.0
146
1.0
273
1
  9

274
1
275
1
276
1
 42
1.0
 72
1
  3

 73
1
 74
1
 75
1
 94
63
  0
MATERIAL
  5
21
102
{ACAD_REACTORS
330
E
102
}
330
E
100
AcDbMaterial
  1
Global
  2

 70
0
 40
1.0
 71
1
 41
1.0
 91
-1023410177
 42
1.0
 72
1
  3

 73
1
 74
1
 75
1
 44
0.5
 73
0
 45
1.0
 46
1.0
 77
1
  4

 78
1
 79
1
170
1
 48
1.0
171
1
  6

172
1
173
1
174
1
140
1.0
141
1.0
175
1
  7

176
1
177
1
178
1
143
1.0
179
1
  8

270
1
271
1
272
1
145
1.0
146
1.0
273
1
  9

274
1
275
1
276
1
 42
1.0
 72
1
  3

 73
1
 74
1
 75
1
 94
63
  0
MLINESTYLE
  5
22
102
{ACAD_REACTORS
330
10
102
}
330
10
100
AcDbMlineStyle
  2
Standard
 70
0
  3

 62
256
 51
90.0
 52
90.0
 71
2
 49
0.5
 62
256
  6
BYLAYER
 49
-0.5
 62
256
  6
BYLAYER
  0
MLEADERSTYLE
  5
2C
102
{ACAD_REACTORS
330
F
102
}
330
F
100
AcDbMLeaderStyle
179
2
170
2
171
1
172
0
 90
2
 40
0.0
 41
0.0
173
1
 91
-1056964608
 92
-2
290
1
 42
2.0
291
1
 43
8.0
  3
Standard
 44
4.0
300

342
29
174
1
175
1
176
0
178
1
 93
-1056964608
 45
4.0
292
0
297
0
 46
4.0
 94
-1056964608
 47
1.0
 49
1.0
140
1.0
294
1
141
0.0
177
0
142
1.0
295
0
296
0
143
3.75
271
0
272
9
273
9
  0
DICTIONARY
  5
2D
330
A
100
AcDbDictionary
280
1
281
1
  3
CREATED_BY_EZDXF
350
2E
  3
WRITTEN_BY_EZDXF
350
A1
  0
DICTIONARYVAR
  5
2E
330
2D
100
DictionaryVariables
280
0
  1
1.4.4b1 @ 2026-02-22T04:20:07.585859+00:00
  0
VISUALSTYLE
  5
5A
102
{ACAD_REACTORS
330
16
102
}
330
16
100
AcDbVisualStyle
  2
2dWireframe
 70
4
177
3
291
0
 70
58
 90
2
176
1
 90
2
176
1
 90
0
176
1
 90
0
176
1
 40
0.6
176
1
 40
30.0
176
1
 62
7
420
16777215
176
1
 90
1
176
1
 90
4
176
1
 62
7
176
1
 62
257
176
1
 90
1
176
1
 90
1
176
1
 40
1.0
176
1
 90
8
176
1
 62
7
176
1
 40
1.0
176
1
 90
1
176
1
 90
6
176
1
 90
2
176
1
 62
7
176
1
 90
5
176
1
 90
0
176
1
 90
0
176
1
290
0
176
1
 90
1
176
1
 40
0.0
176
1
 90
0
176
1
290
1
176
1
290
1
176
1
290
0
176
1
290
0
176
1
290
0
176
1
290
0
176
1
290
0
176
1
290
0
176
1
290
0
176
1
 90
50
176
1
 40
0.0
176
1
 40
1.0
176
1
 90
0
176
1
 62
18
420
0
176
1
 90
50
176
1
 90
3
176
1
 62
5
420
255
176
1
290
0
176
1
 90
50
176
1
 90
50
176
1
 90
50
176
1
290
0
176
1
 90
50
176
1
 62
256
176
0
 40
1.0
176
0
 90
2
176
1
  1
strokes_ogs.tif
176
1
290
0
176
1
 40
1.0
176
1
 40
1.0
176
1
  0
VISUALSTYLE
  5
5B
102
{ACAD_REACTORS
330
16
102
}
330
16
100
AcDbVisualStyle
  2
Basic
 70
7
177
3
291
1
 70
58
 90
2
176
1
 90
2
176
1
 90
0
176
1
 90
1
176
1
 40
0.6
176
1
 40
30.0
176
1
 62
7
420
16777215
176
1
 90
1
176
1
 90
4
176
1
 62
7
176
1
 62
257
176
1
 90
1
176
1
 90
1
176
1
 40
1.0
176
1
 90
8
176
1
 62
7
176
1
 40
1.0
176
1
 90
1
176
1
 90
6
176
1
 90
2
176
1
 62
7
176
1
 90
5
176
1
 90
0
176
1
 90
0
176
1
290
0
176
1
 90
1
176
1
 40
0.0
176
1
 90
0
176
1
290
0
176
1
290
1
176
1
290
1
176
1
290
0
176
1
290
0
176
1
290
0
176
1
290
0
176
1
290
0
176
1
290
0
176
1
 90
50
176
1
 40
0.0
176
1
 40
1.0
176
1
 90
0
176
1
 62
18
420
0
176
1
 90
50
176
1
 90
3
176
1
 62
5
420
255
176
1
290
0
176
1
 90
50
176
1
 90
50
176
1
 90
50
176
1
290
0
176
1
 90
50
176
1
 62
256
176
0
 40
1.0
176
0
 90
2
176
1
  1
strokes_ogs.tif
176
1
290
0
176
1
 40
1.0
176
1
 40
1.0
176
1
  0
VISUALSTYLE
  5
5C
102
{ACAD_REACTORS
330
16
102
}
330
16
100
AcDbVisualStyle
  2
Brighten
 70
12
177
3
291
1
 70
58
 90
2
176
1
 90
2
176
1
 90
0
176
1
 90
2
176
1
 40
0.6
176
1
 40
30.0
176
1
 62
7
420
16777215
176
1
 90
1
176
1
 90
4
176
1
 62
7
176
1
 62
257
176
1
 90
1
176
1
 90
1
176
1
 40
1.0
176
1
 90
8
176
1
 62
7
176
1
 40
1.0
176
1
 90
1
176
1
 90
6
176
1
 90
2
176
1
 62
7
176
1
 90
5
176
1
 90
0
176
1
 90
0
176
1
290
0
176
1
 90
1
176
1
 40
0.0
176
1
 90
0
176
1
290
0
176
1
290
1
176
1
290
1
176
1
290
0
176
1
290
0
176
1
290
0
176
1
290
0
176
1
290
0
176
1
290
0
176
1
 90
50
176
1
 40
0.0
176
1
 40
1.0
176
1
 90
0
176
1
 62
18
420
0
176
1
 90
50
176
1
 90
3
176
1
 62
5
420
255
176
1
290
0
176
1
 90
50
176
1
 90
50
176
1
 90
50
176
1
290
0
176
1
 90
50
176
1
 62
256
176
0
 40
1.0
176
0
 90
2
176
1
  1
strokes_ogs.tif
176
1
290
0
176
1
 40
1.0
176
1
 40
1.0
176
1
  0
VISUALSTYLE
  5
5D
102
{ACAD_REACTORS
330
16
102
}
330
16
100
AcDbVisualStyle
  2
ColorChange
 70
16
177
3
291
1
 70
58
 90
2
176
1
 90
2
176
1
 90
0
176
1
 90
2
176
1
 40
0.6
176
1
 40
30.0
176
1
 62
7
420
16777215
176
1
 90
1
176
1
 90
4
176
1
 62
7
176
1
 62
257
176
1
 90
1
176
1
 90
1
176
1
 40
1.0
176
1
 90
8
176
1
 62
7
176
1
 40
1.0
176
1
 90
1
176
1
 90
6
176
1
 90
2
176
1
 62
7
176
1
 90
5
176
1
 90
0
176
1
 90
0
176
1
290
0
176
1
 90
1
176
1
 40
0.0
176
1
 90
0
176
1
290
0
176
1
290
1
176
1
290
1
176
1
290
0
176
1
290
0
176
1
290
0
176
1
290
0
176
1
290
0
176
1
290
0
176
1
 90
50
176
1
 40
0.0
176
1
 40
1.0
176
1
 90
0
176
1
 62
18
420
0
176
1
 90
50
176
1
 90
3
176
1
 62
5
420
255
176
1
290
0
176
1
 90
50
176
1
 90
50
176
1
 90
50
176
1
290
0
176
1
 90
50
176
1
 62
256
176
0
 40
1.0
176
0
 90
2
176
1
  1
strokes_ogs.tif
176
1
290
0
176
1
 40
1.0
176
1
 40
1.0
176
1
  0
VISUALSTYLE
  5
5E
102
{ACAD_REACTORS
330
16
102
}
330
16
100
AcDbVisualStyle
  2
Conceptual
 70
9
177
3
291
0
 70
58
 90
2
176
1
 90
2
176
1
 90
0
176
1
 90
3
176
1
 40
0.6
176
1
 40
30.0
176
1
 62
7
420
16777215
176
1
 90
1
176
1
 90
4
176
1
 62
7
176
1
 62
257
176
1
 90
1
176
1
 90
1
176
1
 40
1.0
176
1
 90
8
176
1
 62
7
176
1
 40
1.0
176
1
 90
1
176
1
 90
6
176
1
 90
2
176
1
 62
7
176
1
 90
5
176
1
 90
0
176
1
 90
0
176
1
290
0
176
1
 90
1
176
1
 40
0.0
176
1
 90
0
176
1
290
0
176
1
290
1
176
1
290
1
176
1
290
0
176
1
290
0
176
1
290
0
176
1
290
0
176
1
290
0
176
1
290
0
176
1
 90
50
176
1
 40
0.0
176
1
 40
1.0
176
1
 90
0
176
1
 62
18
420
0
176
1
 90
50
176
1
 90
3
176
1
 62
5
420
255
176
1
290
0
176
1
 90
50
176
1
 90
50
176
1
 90
50
176
1
290
0
176
1
 90
50
176
1
 62
256
176
0
 40
1.0
176
0
 90
2
176
1
  1
strokes_ogs.tif
176
1
290
0
176
1
 40
1.0
176
1
 40
1.0
176
1
  0
VISUALSTYLE
  5
5F
102
{ACAD_REACTORS
330
16
102
}
330
16
100
AcDbVisualStyle
  2
Dim
 70
11
177
3
291
1
 70
58
 90
2
176
1
 90
2
176
1
 90
0
176
1
 90
2
176
1
 40
0.6
176
1
 40
30.0
176
1
 62
7
420
16777215
176
1
 90
1
176
1
 90
4
176
1
 62
7
176
1
 62
257
176
1
 90
1
176
1
 90
1
176
1
 40
1.0
176
1
 90
8
176
1
 62
7
176
1
 40
1.0
176
1
 90
1
176
1
 90
6
176
1
 90
2
176
1
 62
7
176
1
 90
5
176
1
 90
0
176
1
 90
0
176
1
290
0
176
1
 90
1
176
1
 40
0.0
176
1
 90
0
176
1
290
0
176
1
290
1
176
1
290
1
176
1
290
0
176
1
290
0
176
1
290
0
176
1
290
0
176
1
290
0
176
1
290
0
176
1
 90
50
176
1
 40
0.0
176
1
 40
1.0
176
1
 90
0
176
1
 62
18
420
0
176
1
 90
50
176
1
 90
3
176
1
 62
5
420
255
176
1
290
0
176
1
 90
50
176
1
 90
50
176
1
 90
50
176
1
290
0
176
1
 90
50
176
1
 62
256
176
0
 40
1.0
176
0
 90
2
176
1
  1
strokes_ogs.tif
176
1
290
0
176
1
 40
1.0
176
1
 40
1.0
176
1
  0
VISUALSTYLE
  5
60
102
{ACAD_REACTORS
330
16
102
}
330
16
100
AcDbVisualStyle
  2
EdgeColorOff
 70
22
177
3
291
1
 70
58
 90
2
176
1
 90
2
176
1
 90
0
176
1
 90
2
176
1
 40
0.6
176
1
 40
30.0
176
1
 62
7
420
16777215
176
1
 90
1
176
1
 90
4
176
1
 62
7
176
1
 62
257
176
1
 90
1
176
1
 90
1
176
1
 40
1.0
176
1
 90
8
176
1
 62
7
176
1
 40
1.0
176
1
 90
1
176
1
 90
6
176
1
 90
2
176
1
 62
7
176
1
 90
5
176
1
 90
0
176
1
 90
0
176
1
290
0
176
1
 90
1
176
1
 40
0.0
176
1
 90
0
176
1
290
0
176
1
290
1
176
1
290
1
176
1
290
0
176
1
290
0
176
1
290
0
176
1
290
0
176
1
290
0
176
1
290
0
176
1
 90
50
176
1
 40
0.0
176
1
 40
1.0
176
1
 90
0
176
1
 62
18
420
0
176
1
 90
50
176
1
 90
3
176
1
 62
5
420
255
176
1
290
0
176
1
 90
50
176
1
 90
50
176
1
 90
50
176
1
290
0
176
1
 90
50
176
1
 62
256
176
0
 40
1.0
176
0
 90
2
176
1
  1
strokes_ogs.tif
176
1
290
0
176
1
 40
1.0
176
1
 40
1.0
176
1
  0
VISUALSTYLE
  5
61
102
{ACAD_REACTORS
330
16
102
}
330
16
100
AcDbVisualStyle
  2
Facepattern
 70
15
177
3
291
1
 70
58
 90
2
176
1
 90
2
176
1
 90
0
176
1
 90
2
176
1
 40
0.6
176
1
 40
30.0
176
1
 62
7
420
16777215
176
1
 90
1
176
1
 90
4
176
1
 62
7
176
1
 62
257
176
1
 90
1
176
1
 90
1
176
1
 40
1.0
176
1
 90
8
176
1
 62
7
176
1
 40
1.0
176
1
 90
1
176
1
 90
6
176
1
 90
2
176
1
 62
7
176
1
 90
5
176
1
 90
0
176
1
 90
0
176
1
290
0
176
1
 90
1
176
1
 40
0.0
176
1
 90
0
176
1
290
0
176
1
290
1
176
1
290
1
176
1
290
0
176
1
290
0
176
1
290
0
176
1
290
0
176
1
290
0
176
1
290
0
176
1
 90
50
176
1
 40
0.0
176
1
 40
1.0
176
1
 90
0
176
1
 62
18
420
0
176
1
 90
50
176
1
 90
3
176
1
 62
5
420
255
176
1
290
0
176
1
 90
50
176
1
 90
50
176
1
 90
50
176
1
290
0
176
1
 90
50
176
1
 62
256
176
0
 40
1.0
176
0
 90
2
176
1
  1
strokes_ogs.tif
176
1
290
0
176
1
 40
1.0
176
1
 40
1.0
176
1
  0
VISUALSTYLE
  5
62
102
{ACAD_REACTORS
330
16
102
}
330
16
100
AcDbVisualStyle
  2
Flat
 70
0
177
3
291
1
 70
58
 90
2
176
1
 90
2
176
1
 90
0
176
1
 90
2
176
1
 40
0.6
176
1
 40
30.0
176
1
 62
7
420
16777215
176
1
 90
1
176
1
 90
4
176
1
 62
7
176
1
 62
257
176
1
 90
1
176
1
 90
1
176
1
 40
1.0
176
1
 90
8
176
1
 62
7
176
1
 40
1.0
176
1
 90
1
176
1
 90
6
176
1
 90
2
176
1
 62
7
176
1
 90
5
176
1
 90
0
176
1
 90
0
176
1
290
0
176
1
 90
1
176
1
 40
0.0
176
1
 90
0
176
1
290
0
176
1
290
1
176
1
290
1
176
1
290
0
176
1
290
0
176
1
290
0
176
1
290
0
176
1
290
0
176
1
290
0
176
1
 90
50
176
1
 40
0.0
176
1
 40
1.0
176
1
 90
0
176
1
 62
18
420
0
176
1
 90
50
176
1
 90
3
176
1
 62
5
420
255
176
1
290
0
176
1
 90
50
176
1
 90
50
176
1
 90
50
176
1
290
0
176
1
 90
50
176
1
 62
256
176
0
 40
1.0
176
0
 90
2
176
1
  1
strokes_ogs.tif
176
1
290
0
176
1
 40
1.0
176
1
 40
1.0
176
1
  0
VISUALSTYLE
  5
63
102
{ACAD_REACTORS
330
16
102
}
330
16
100
AcDbVisualStyle
  2
FlatWithEdges
 70
1
177
3
291
1
 70
58
 90
2
176
1
 90
2
176
1
 90
0
176
1
 90
2
176
1
 40
0.6
176
1
 40
30.0
176
1
 62
7
420
16777215
176
1
 90
1
176
1
 90
4
176
1
 62
7
176
1
 62
257
176
1
 90
1
176
1
 90
1
176
1
 40
1.0
176
1
 90
8
176
1
 62
7
176
1
 40
1.0
176
1
 90
1
176
1
 90
6
176
1
 90
2
176
1
 62
7
176
1
 90
5
176
1
 90
0
176
1
 90
0
176
1
290
0
176
1
 90
1
176
1
 40
0.0
176
1
 90
0
176
1
290
0
176
1
290
1
176
1
290
1
176
1
290
0
176
1
290
0
176
1
290
0
176
1
290
0
176
1
290
0
176
1
290
0
176
1
 90
50
176
1
 40
0.0
176
1
 40
1.0
176
1
 90
0
176
1
 62
18
420
0
176
1
 90
50
176
1
 90
3
176
1
 62
5
420
255
176
1
290
0
176
1
 90
50
176
1
 90
50
176
1
 90
50
176
1
290
0
176
1
 90
50
176
1
 62
256
176
0
 40
1.0
176
0
 90
2
176
1
  1
strokes_ogs.tif
176
1
290
0
176
1
 40
1.0
176
1
 40
1.0
176
1
  0
VISUALSTYLE
  5
64
102
{ACAD_REACTORS
330
16
102
}
330
16
100
AcDbVisualStyle
  2
Gouraud
 70
2
177
3
291
1
 70
58
 90
2
176
1
 90
2
176
1
 90
0
176
1
 90
2
176
1
 40
0.6
176
1
 40
30.0
176
1
 62
7
420
16777215
176
1
 90
1
176
1
 90
4
176
1
 62
7
176
1
 62
257
176
1
 90
1
176
1
 90
1
176
1
 40
1.0
176
1
 90
8
176
1
 62
7
176
1
 40
1.0
176
1
 90
1
176
1
 90
6
176
1
 90
2
176
1
 62
7
176
1
 90
5
176
1
 90
0
176
1
 90
0
176
1
290
0
176
1
 90
1
176
1
 40
0.0
176
1
 90
0
176
1
290
0
176
1
290
1
176
1
290
1
176
1
290
0
176
1
290
0
176
1
290
0
176
1
290
0
176
1
290
0
176
1
290
0
176
1
 90
50
176
1
 40
0.0
176
1
 40
1.0
176
1
 90
0
176
1
 62
18
420
0
176
1
 90
50
176
1
 90
3
176
1
 62
5
420
255
176
1
290
0
176
1
 90
50
176
1
 90
50
176
1
 90
50
176
1
290
0
176
1
 90
50
176
1
 62
256
176
0
 40
1.0
176
0
 90
2
176
1
  1
strokes_ogs.tif
176
1
290
0
176
1
 40
1.0
176
1
 40
1.0
176
1
  0
VISUALSTYLE
  5
65
102
{ACAD_REACTORS
330
16
102
}
330
16
100
AcDbVisualStyle
  2
GouraudWithEdges
 70
3
177
3
291
1
 70
58
 90
2
176
1
 90
2
176
1
 90
0
176
1
 90
2
176
1
 40
0.6
176
1
 40
30.0
176
1
 62
7
420
16777215
176
1
 90
1
176
1
 90
4
176
1
 62
7
176
1
 62
257
176
1
 90
1
176
1
 90
1
176
1
 40
1.0
176
1
 90
8
176
1
 62
7
176
1
 40
1.0
176
1
 90
1
176
1
 90
6
176
1
 90
2
176
1
 62
7
176
1
 90
5
176
1
 90
0
176
1
 90
0
176
1
290
0
176
1
 90
1
176
1
 40
0.0
176
1
 90
0
176
1
290
0
176
1
290
1
176
1
290
1
176
1
290
0
176
1
290
0
176
1
290
0
176
1
290
0
176
1
290
0
176
1
290
0
176
1
 90
50
176
1
 40
0.0
176
1
 40
1.0
176
1
 90
0
176
1
 62
18
420
0
176
1
 90
50
176
1
 90
3
176
1
 62
5
420
255
176
1
290
0
176
1
 90
50
176
1
 90
50
176
1
 90
50
176
1
290
0
176
1
 90
50
176
1
 62
256
176
0
 40
1.0
176
0
 90
2
176
1
  1
strokes_ogs.tif
176
1
290
0
176
1
 40
1.0
176
1
 40
1.0
176
1
  0
VISUALSTYLE
  5
66
102
{ACAD_REACTORS
330
16
102
}
330
16
100
AcDbVisualStyle
  2
Hidden
 70
6
177
3
291
0
 70
58
 90
2
176
1
 90
2
176
1
 90
0
176
1
 90
1
176
1
 40
0.6
176
1
 40
30.0
176
1
 62
7
420
16777215
176
1
 90
1
176
1
 90
4
176
1
 62
7
176
1
 62
257
176
1
 90
1
176
1
 90
1
176
1
 40
1.0
176
1
 90
8
176
1
 62
7
176
1
 40
1.0
176
1
 90
1
176
1
 90
6
176
1
 90
2
176
1
 62
7
176
1
 90
5
176
1
 90
0
176
1
 90
0
176
1
290
0
176
1
 90
1
176
1
 40
0.0
176
1
 90
0
176
1
290
0
176
1
290
1
176
1
290
1
176
1
290
0
176
1
290
0
176
1
290
0
176
1
290
0
176
1
290
0
176
1
290
0
176
1
 90
50
176
1
 40
0.0
176
1
 40
1.0
176
1
 90
0
176
1
 62
18
420
0
176
1
 90
50
176
1
 90
3
176
1
 62
5
420
255
176
1
290
0
176
1
 90
50
176
1
 90
50
176
1
 90
50
176
1
290
0
176
1
 90
50
176
1
 62
256
176
0
 40
1.0
176
0
 90
2
176
1
  1
strokes_ogs.tif
176
1
290
0
176
1
 40
1.0
176
1
 40
1.0
176
1
  0
VISUALSTYLE
  5
67
102
{ACAD_REACTORS
330
16
102
}
330
16
100
AcDbVisualStyle
  2
JitterOff
 70
20
177
3
291
1
 70
58
 90
2
176
1
 90
2
176
1
 90
0
176
1
 90
2
176
1
 40
0.6
176
1
 40
30.0
176
1
 62
7
420
16777215
176
1
 90
1
176
1
 90
4
176
1
 62
7
176
1
 62
257
176
1
 90
1
176
1
 90
1
176
1
 40
1.0
176
1
 90
8
176
1
 62
7
176
1
 40
1.0
176
1
 90
1
176
1
 90
6
176
1
 90
2
176
1
 62
7
176
1
 90
5
176
1
 90
0
176
1
 90
0
176
1
290
0
176
1
 90
1
176
1
 40
0.0
176
1
 90
0
176
1
290
0
176
1
290
1
176
1
290
1
176
1
290
0
176
1
290
0
176
1
290
0
176
1
290
0
176
1
290
0
176
1
290
0
176
1
 90
50
176
1
 40
0.0
176
1
 40
1.0
176
1
 90
0
176
1
 62
18
420
0
176
1
 90
50
176
1
 90
3
176
1
 62
5
420
255
176
1
290
0
176
1
 90
50
176
1
 90
50
176
1
 90
50
176
1
290
0
176
1
 90
50
176
1
 62
256
176
0
 40
1.0
176
0
 90
2
176
1
  1
strokes_ogs.tif
176
1
290
0
176
1
 40
1.0
176
1
 40
1.0
176
1
  0
VISUALSTYLE
  5
68
102
{ACAD_REACTORS
330
16
102
}
330
16
100
AcDbVisualStyle
  2
Linepattern
 70
14
177
3
291
1
 70
58
 90
2
176
1
 90
2
176
1
 90
0
176
1
 90
2
176
1
 40
0.6
176
1
 40
30.0
176
1
 62
7
420
16777215
176
1
 90
1
176
1
 90
4
176
1
 62
7
176
1
 62
257
176
1
 90
1
176
1
 90
1
176
1
 40
1.0
176
1
 90
8
176
1
 62
7
176
1
 40
1.0
176
1
 90
1
176
1
 90
6
176
1
 90
2
176
1
 62
7
176
1
 90
5
176
1
 90
0
176
1
 90
0
176
1
290
0
176
1
 90
1
176
1
 40
0.0
176
1
 90
0
176
1
290
0
176
1
290
1
176
1
290
1
176
1
290
0
176
1
290
0
176
1
290
0
176
1
290
0
176
1
290
0
176
1
290
0
176
1
 90
50
176
1
 40
0.0
176
1
 40
1.0
176
1
 90
0
176
1
 62
18
420
0
176
1
 90
50
176
1
 90
3
176
1
 62
5
420
255
176
1
290
0
176
1
 90
50
176
1
 90
50
176
1
 90
50
176
1
290
0
176
1
 90
50
176
1
 62
256
176
0
 40
1.0
176
0
 90
2
176
1
  1
strokes_ogs.tif
176
1
290
0
176
1
 40
1.0
176
1
 40
1.0
176
1
  0
VISUALSTYLE
  5
69
102
{ACAD_REACTORS
330
16
102
}
330
16
100
AcDbVisualStyle
  2
Modeling
 70
10
177
3
291
0
 70
58
 90
2
176
1
 90
2
176
1
 90
0
176
1
 90
2
176
1
 40
0.6
176
1
 40
30.0
176
1
 62
7
420
16777215
176
1
 90
1
176
1
 90
4
176
1
 62
7
176
1
 62
257
176
1
 90
1
176
1
 90
1
176
1
 40
1.0
176
1
 90
8
176
1
 62
7
176
1
 40
1.0
176
1
 90
1
176
1
 90
6
176
1
 90
2
176
1
 62
7
176
1
 90
5
176
1
 90
0
176
1
 90
0
176
1
290
0
176
1
 90
1
176
1
 40
0.0
176
1
 90
0
176
1
290
0
176
1
290
1
176
1
290
1
176
1
290
0
176
1
290
0
176
1
290
0
176
1
290
0
176
1
290
0
176
1
290
0
176
1
 90
50
176
1
 40
0.0
176
1
 40
1.0
176
1
 90
0
176
1
 62
18
420
0
176
1
 90
50
176
1
 90
3
176
1
 62
5
420
255
176
1
290
0
176
1
 90
50
176
1
 90
50
176
1
 90
50
176
1
290
0
176
1
 90
50
176
1
 62
256
176
0
 40
1.0
176
0
 90
2
176
1
  1
strokes_ogs.tif
176
1
290
0
176
1
 40
1.0
176
1
 40
1.0
176
1
  0
VISUALSTYLE
  5
6A
102
{ACAD_REACTORS
330
16
102
}
330
16
100
AcDbVisualStyle
  2
OverhangOff
 70
21
177
3
291
1
 70
58
 90
2
176
1
 90
2
176
1
 90
0
176
1
 90
2
176
1
 40
0.6
176
1
 40
30.0
176
1
 62
7
420
16777215
176
1
 90
1
176
1
 90
4
176
1
 62
7
176
1
 62
257
176
1
 90
1
176
1
 90
1
176
1
 40
1.0
176
1
 90
8
176
1
 62
7
176
1
 40
1.0
176
1
 90
1
176
1
 90
6
176
1
 90
2
176
1
 62
7
176
1
 90
5
176
1
 90
0
176
1
 90
0
176
1
290
0
176
1
 90
1
176
1
 40
0.0
176
1
 90
0
176
1
290
0
176
1
290
1
176
1
290
1
176
1
290
0
176
1
290
0
176
1
290
0
176
1
290
0
176
1
290
0
176
1
290
0
176
1
 90
50
176
1
 40
0.0
176
1
 40
1.0
176
1
 90
0
176
1
 62
18
420
0
176
1
 90
50
176
1
 90
3
176
1
 62
5
420
255
176
1
290
0
176
1
 90
50
176
1
 90
50
176
1
 90
50
176
1
290
0
176
1
 90
50
176
1
 62
256
176
0
 40
1.0
176
0
 90
2
176
1
  1
strokes_ogs.tif
176
1
290
0
176
1
 40
1.0
176
1
 40
1.0
176
1
  0
VISUALSTYLE
  5
6B
102
{ACAD_REACTORS
330
16
102
}
330
16
100
AcDbVisualStyle
  2
Realistic
 70
8
177
3
291
0
 70
58
 90
2
176
1
 90
2
176
1
 90
0
176
1
 90
2
176
1
 40
0.6
176
1
 40
30.0
176
1
 62
7
420
16777215
176
1
 90
1
176
1
 90
4
176
1
 62
7
176
1
 62
257
176
1
 90
1
176
1
 90
1
176
1
 40
1.0
176
1
 90
8
176
1
 62
7
176
1
 40
1.0
176
1
 90
1
176
1
 90
6
176
1
 90
2
176
1
 62
7
176
1
 90
5
176
1
 90
0
176
1
 90
0
176
1
290
0
176
1
 90
1
176
1
 40
0.0
176
1
 90
0
176
1
290
0
176
1
290
1
176
1
290
1
176
1
290
0
176
1
290
0
176
1
290
0
176
1
290
0
176
1
290
0
176
1
290
0
176
1
 90
50
176
1
 40
0.0
176
1
 40
1.0
176
1
 90
0
176
1
 62
18
420
0
176
1
 90
50
176
1
 90
3
176
1
 62
5
420
255
176
1
290
0
176
1
 90
50
176
1
 90
50
176
1
 90
50
176
1
290
0
176
1
 90
50
176
1
 62
256
176
0
 40
1.0
176
0
 90
2
176
1
  1
strokes_ogs.tif
176
1
290
0
176
1
 40
1.0
176
1
 40
1.0
176
1
  0
VISUALSTYLE
  5
6C
102
{ACAD_REACTORS
330
16
102
}
330
16
100
AcDbVisualStyle
  2
Shaded
 70
27
177
3
291
0
 70
58
 90
2
176
1
 90
2
176
1
 90
0
176
1
 90
2
176
1
 40
0.6
176
1
 40
30.0
176
1
 62
7
420
16777215
176
1
 90
1
176
1
 90
4
176
1
 62
7
176
1
 62
257
176
1
 90
1
176
1
 90
1
176
1
 40
1.0
176
1
 90
8
176
1
 62
7
176
1
 40
1.0
176
1
 90
1
176
1
 90
6
176
1
 90
2
176
1
 62
7
176
1
 90
5
176
1
 90
0
176
1
 90
0
176
1
290
0
176
1
 90
1
176
1
 40
0.0
176
1
 90
0
176
1
290
0
176
1
290
1
176
1
290
1
176
1
290
0
176
1
290
0
176
1
290
0
176
1
290
0
176
1
290
0
176
1
290
0
176
1
 90
50
176
1
 40
0.0
176
1
 40
1.0
176
1
 90
0
176
1
 62
18
420
0
176
1
 90
50
176
1
 90
3
176
1
 62
5
420
255
176
1
290
0
176
1
 90
50
176
1
 90
50
176
1
 90
50
176
1
290
0
176
1
 90
50
176
1
 62
256
176
0
 40
1.0
176
0
 90
2
176
1
  1
strokes_ogs.tif
176
1
290
0
176
1
 40
1.0
176
1
 40
1.0
176
1
  0
VISUALSTYLE
  5
6D
102
{ACAD_REACTORS
330
16
102
}
330
16
100
AcDbVisualStyle
  2
Shaded with edges
 70
26
177
3
291
0
 70
58
 90
2
176
1
 90
2
176
1
 90
0
176
1
 90
2
176
1
 40
0.6
176
1
 40
30.0
176
1
 62
7
420
16777215
176
1
 90
1
176
1
 90
4
176
1
 62
7
176
1
 62
257
176
1
 90
1
176
1
 90
1
176
1
 40
1.0
176
1
 90
8
176
1
 62
7
176
1
 40
1.0
176
1
 90
1
176
1
 90
6
176
1
 90
2
176
1
 62
7
176
1
 90
5
176
1
 90
0
176
1
 90
0
176
1
290
0
176
1
 90
1
176
1
 40
0.0
176
1
 90
0
176
1
290
0
176
1
290
1
176
1
290
1
176
1
290
0
176
1
290
0
176
1
290
0
176
1
290
0
176
1
290
0
176
1
290
0
176
1
 90
50
176
1
 40
0.0
176
1
 40
1.0
176
1
 90
0
176
1
 62
18
420
0
176
1
 90
50
176
1
 90
3
176
1
 62
5
420
255
176
1
290
0
176
1
 90
50
176
1
 90
50
176
1
 90
50
176
1
290
0
176
1
 90
50
176
1
 62
256
176
0
 40
1.0
176
0
 90
2
176
1
  1
strokes_ogs.tif
176
1
290
0
176
1
 40
1.0
176
1
 40
1.0
176
1
  0
VISUALSTYLE
  5
6E
102
{ACAD_REACTORS
330
16
102
}
330
16
100
AcDbVisualStyle
  2
Shades of Gray
 70
23
177
3
291
0
 70
58
 90
2
176
1
 90
2
176
1
 90
0
176
1
 90
2
176
1
 40
0.6
176
1
 40
30.0
176
1
 62
7
420
16777215
176
1
 90
1
176
1
 90
4
176
1
 62
7
176
1
 62
257
176
1
 90
1
176
1
 90
1
176
1
 40
1.0
176
1
 90
8
176
1
 62
7
176
1
 40
1.0
176
1
 90
1
176
1
 90
6
176
1
 90
2
176
1
 62
7
176
1
 90
5
176
1
 90
0
176
1
 90
0
176
1
290
0
176
1
 90
1
176
1
 40
0.0
176
1
 90
0
176
1
290
0
176
1
290
1
176
1
290
1
176
1
290
0
176
1
290
0
176
1
290
0
176
1
290
0
176
1
290
0
176
1
290
0
176
1
 90
50
176
1
 40
0.0
176
1
 40
1.0
176
1
 90
0
176
1
 62
18
420
0
176
1
 90
50
176
1
 90
3
176
1
 62
5
420
255
176
1
290
0
176
1
 90
50
176
1
 90
50
176
1
 90
50
176
1
290
0
176
1
 90
50
176
1
 62
256
176
0
 40
1.0
176
0
 90
2
176
1
  1
strokes_ogs.tif
176
1
290
0
176
1
 40
1.0
176
1
 40
1.0
176
1
  0
VISUALSTYLE
  5
6F
102
{ACAD_REACTORS
330
16
102
}
330
16
100
AcDbVisualStyle
  2
Sketchy
 70
24
177
3
291
0
 70
58
 90
2
176
1
 90
2
176
1
 90
0
176
1
 90
1
176
1
 40
0.6
176
1
 40
30.0
176
1
 62
7
420
16777215
176
1
 90
1
176
1
 90
4
176
1
 62
7
176
1
 62
257
176
1
 90
1
176
1
 90
1
176
1
 40
1.0
176
1
 90
8
176
1
 62
7
176
1
 40
1.0
176
1
 90
1
176
1
 90
6
176
1
 90
2
176
1
 62
7
176
1
 90
5
176
1
 90
0
176
1
 90
0
176
1
290
0
176
1
 90
1
176
1
 40
0.0
176
1
 90
0
176
1
290
0
176
1
290
1
176
1
290
1
176
1
290
0
176
1
290
0
176
1
290
0
176
1
290
0
176
1
290
0
176
1
290
0
176
1
 90
50
176
1
 40
0.0
176
1
 40
1.0
176
1
 90
0
176
1
 62
18
420
0
176
1
 90
50
176
1
 90
3
176
1
 62
5
420
255
176
1
290
0
176
1
 90
50
176
1
 90
50
176
1
 90
50
176
1
290
0
176
1
 90
50
176
1
 62
256
176
0
 40
1.0
176
0
 90
2
176
1
  1
strokes_ogs.tif
176
1
290
0
176
1
 40
1.0
176
1
 40
1.0
176
1
  0
VISUALSTYLE
  5
70
102
{ACAD_REACTORS
330
16
102
}
330
16
100
AcDbVisualStyle
  2
Thicken
 70
13
177
3
291
1
 70
58
 90
2
176
1
 90
2
176
1
 90
0
176
1
 90
2
176
1
 40
0.6
176
1
 40
30.0
176
1
 62
7
420
16777215
176
1
 90
1
176
1
 90
4
176
1
 62
7
176
1
 62
257
176
1
 90
1
176
1
 90
1
176
1
 40
1.0
176
1
 90
8
176
1
 62
7
176
1
 40
1.0
176
1
 90
1
176
1
 90
6
176
1
 90
2
176
1
 62
7
176
1
 90
5
176
1
 90
0
176
1
 90
0
176
1
290
0
176
1
 90
1
176
1
 40
0.0
176
1
 90
0
176
1
290
0
176
1
290
1
176
1
290
1
176
1
290
0
176
1
290
0
176
1
290
0
176
1
290
0
176
1
290
0
176
1
290
0
176
1
 90
50
176
1
 40
0.0
176
1
 40
1.0
176
1
 90
0
176
1
 62
18
420
0
176
1
 90
50
176
1
 90
3
176
1
 62
5
420
255
176
1
290
0
176
1
 90
50
176
1
 90
50
176
1
 90
50
176
1
290
0
176
1
 90
50
176
1
 62
256
176
0
 40
1.0
176
0
 90
2
176
1
  1
strokes_ogs.tif
176
1
290
0
176
1
 40
1.0
176
1
 40
1.0
176
1
  0
VISUALSTYLE
  5
71
102
{ACAD_REACTORS
330
16
102
}
330
16
100
AcDbVisualStyle
  2
Wireframe
 70
5
177
3
291
0
 70
58
 90
2
176
1
 90
2
176
1
 90
0
176
1
 90
0
176
1
 40
0.6
176
1
 40
30.0
176
1
 62
7
420
16777215
176
1
 90
1
176
1
 90
4
176
1
 62
7
176
1
 62
257
176
1
 90
1
176
1
 90
1
176
1
 40
1.0
176
1
 90
8
176
1
 62
7
176
1
 40
1.0
176
1
 90
1
176
1
 90
6
176
1
 90
2
176
1
 62
7
176
1
 90
5
176
1
 90
0
176
1
 90
0
176
1
290
0
176
1
 90
1
176
1
 40
0.0
176
1
 90
0
176
1
290
0
176
1
290
1
176
1
290
1
176
1
290
0
176
1
290
0
176
1
290
0
176
1
290
0
176
1
290
0
176
1
290
0
176
1
 90
50
176
1
 40
0.0
176
1
 40
1.0
176
1
 90
0
176
1
 62
18
420
0
176
1
 90
50
176
1
 90
3
176
1
 62
5
420
255
176
1
290
0
176
1
 90
50
176
1
 90
50
176
1
 90
50
176
1
290
0
176
1
 90
50
176
1
 62
256
176
0
 40
1.0
176
0
 90
2
176
1
  1
strokes_ogs.tif
176
1
290
0
176
1
 40
1.0
176
1
 40
1.0
176
1
  0
VISUALSTYLE
  5
72
102
{ACAD_REACTORS
330
16
102
}
330
16
100
AcDbVisualStyle
  2
X-Ray
 70
25
177
3
291
0
 70
58
 90
2
176
1
 90
2
176
1
 90
0
176
1
 90
2
176
1
 40
0.5
176
1
 40
30.0
176
1
 62
7
420
16777215
176
1
 90
1
176
1
 90
4
176
1
 62
7
176
1
 62
257
176
1
 90
1
176
1
 90
1
176
1
 40
1.0
176
1
 90
8
176
1
 62
7
176
1
 40
1.0
176
1
 90
1
176
1
 90
6
176
1
 90
2
176
1
 62
7
176
1
 90
5
176
1
 90
0
176
1
 90
0
176
1
290
0
176
1
 90
1
176
1
 40
0.0
176
1
 90
0
176
1
290
0
176
1
290
1
176
1
290
1
176
1
290
0
176
1
290
0
176
1
290
0
176
1
290
0
176
1
290
0
176
1
290
0
176
1
 90
50
176
1
 40
0.0
176
1
 40
1.0
176
1
 90
0
176
1
 62
18
420
0
176
1
 90
50
176
1
 90
3
176
1
 62
5
420
255
176
1
290
0
176
1
 90
50
176
1
 90
50
176
1
 90
50
176
1
290
0
176
1
 90
50
176
1
 62
256
176
0
 40
1.0
176
0
 90
2
176
1
  1
strokes_ogs.tif
176
1
290
0
176
1
 40
1.0
176
1
 40
1.0
176
1
  0
DICTIONARYVAR
  5
A1
330
2D
100
DictionaryVariables
280
0
  1
1.4.4b1 @ 2026-02-22T04:20:07.589840+00:00
  0
ENDSEC
  0
EOF
